%TF.GenerationSoftware,KiCad,Pcbnew,(6.0.4)*%
%TF.CreationDate,2022-04-19T21:44:47+02:00*%
%TF.ProjectId,coaster,636f6173-7465-4722-9e6b-696361645f70,rev?*%
%TF.SameCoordinates,Original*%
%TF.FileFunction,Legend,Top*%
%TF.FilePolarity,Positive*%
%FSLAX46Y46*%
G04 Gerber Fmt 4.6, Leading zero omitted, Abs format (unit mm)*
G04 Created by KiCad (PCBNEW (6.0.4)) date 2022-04-19 21:44:47*
%MOMM*%
%LPD*%
G01*
G04 APERTURE LIST*
G04 Aperture macros list*
%AMRoundRect*
0 Rectangle with rounded corners*
0 $1 Rounding radius*
0 $2 $3 $4 $5 $6 $7 $8 $9 X,Y pos of 4 corners*
0 Add a 4 corners polygon primitive as box body*
4,1,4,$2,$3,$4,$5,$6,$7,$8,$9,$2,$3,0*
0 Add four circle primitives for the rounded corners*
1,1,$1+$1,$2,$3*
1,1,$1+$1,$4,$5*
1,1,$1+$1,$6,$7*
1,1,$1+$1,$8,$9*
0 Add four rect primitives between the rounded corners*
20,1,$1+$1,$2,$3,$4,$5,0*
20,1,$1+$1,$4,$5,$6,$7,0*
20,1,$1+$1,$6,$7,$8,$9,0*
20,1,$1+$1,$8,$9,$2,$3,0*%
G04 Aperture macros list end*
%ADD10C,0.300000*%
%ADD11C,0.150000*%
%ADD12C,0.120000*%
%ADD13C,0.100000*%
%ADD14RoundRect,0.250000X0.625000X-0.400000X0.625000X0.400000X-0.625000X0.400000X-0.625000X-0.400000X0*%
%ADD15RoundRect,0.250000X-0.650000X0.412500X-0.650000X-0.412500X0.650000X-0.412500X0.650000X0.412500X0*%
%ADD16RoundRect,0.250000X0.650000X-0.412500X0.650000X0.412500X-0.650000X0.412500X-0.650000X-0.412500X0*%
%ADD17RoundRect,0.250000X-0.412500X-0.650000X0.412500X-0.650000X0.412500X0.650000X-0.412500X0.650000X0*%
%ADD18RoundRect,0.250000X-0.400000X-0.625000X0.400000X-0.625000X0.400000X0.625000X-0.400000X0.625000X0*%
%ADD19RoundRect,0.250000X0.550000X-1.250000X0.550000X1.250000X-0.550000X1.250000X-0.550000X-1.250000X0*%
%ADD20RoundRect,0.250000X-0.600000X-0.725000X0.600000X-0.725000X0.600000X0.725000X-0.600000X0.725000X0*%
%ADD21O,1.700000X1.950000*%
%ADD22RoundRect,0.250000X0.412500X0.650000X-0.412500X0.650000X-0.412500X-0.650000X0.412500X-0.650000X0*%
%ADD23R,3.500000X3.500000*%
%ADD24RoundRect,0.750000X-0.750000X-1.000000X0.750000X-1.000000X0.750000X1.000000X-0.750000X1.000000X0*%
%ADD25RoundRect,0.875000X-0.875000X-0.875000X0.875000X-0.875000X0.875000X0.875000X-0.875000X0.875000X0*%
%ADD26R,0.909599X0.254800*%
%ADD27R,0.254800X0.909599*%
%ADD28R,3.098800X3.098800*%
%ADD29R,1.700000X1.700000*%
%ADD30O,1.700000X1.700000*%
%ADD31R,2.100000X1.800000*%
%ADD32RoundRect,0.250001X0.462499X0.624999X-0.462499X0.624999X-0.462499X-0.624999X0.462499X-0.624999X0*%
%ADD33RoundRect,0.250000X-0.625000X0.400000X-0.625000X-0.400000X0.625000X-0.400000X0.625000X0.400000X0*%
%ADD34RoundRect,0.250001X-0.462499X-0.624999X0.462499X-0.624999X0.462499X0.624999X-0.462499X0.624999X0*%
%ADD35RoundRect,0.250000X0.400000X0.625000X-0.400000X0.625000X-0.400000X-0.625000X0.400000X-0.625000X0*%
%ADD36R,0.550000X1.500000*%
%ADD37R,1.500000X0.550000*%
%ADD38R,0.300000X1.400000*%
%ADD39RoundRect,0.250000X0.750000X-0.600000X0.750000X0.600000X-0.750000X0.600000X-0.750000X-0.600000X0*%
%ADD40O,2.000000X1.700000*%
%ADD41RoundRect,0.237500X-0.237500X0.250000X-0.237500X-0.250000X0.237500X-0.250000X0.237500X0.250000X0*%
%ADD42R,4.600000X1.100000*%
%ADD43R,9.400000X10.800000*%
%ADD44RoundRect,0.250000X0.725000X-0.600000X0.725000X0.600000X-0.725000X0.600000X-0.725000X-0.600000X0*%
%ADD45O,1.950000X1.700000*%
%ADD46R,1.400000X0.400000*%
%ADD47R,1.900000X1.800000*%
%ADD48R,1.900000X2.300000*%
G04 APERTURE END LIST*
D10*
X124499999Y-79178571D02*
X124499999Y-77678571D01*
X125071428Y-77678571D01*
X125214285Y-77750000D01*
X125285714Y-77821428D01*
X125357142Y-77964285D01*
X125357142Y-78178571D01*
X125285714Y-78321428D01*
X125214285Y-78392857D01*
X125071428Y-78464285D01*
X124499999Y-78464285D01*
X126714285Y-79178571D02*
X125999999Y-79178571D01*
X125999999Y-77678571D01*
X127499999Y-77678571D02*
X127785714Y-77678571D01*
X127928571Y-77750000D01*
X128071428Y-77892857D01*
X128142857Y-78178571D01*
X128142857Y-78678571D01*
X128071428Y-78964285D01*
X127928571Y-79107142D01*
X127785714Y-79178571D01*
X127499999Y-79178571D01*
X127357142Y-79107142D01*
X127214285Y-78964285D01*
X127142857Y-78678571D01*
X127142857Y-78178571D01*
X127214285Y-77892857D01*
X127357142Y-77750000D01*
X127499999Y-77678571D01*
X128571428Y-77678571D02*
X129428571Y-77678571D01*
X128999999Y-79178571D02*
X128999999Y-77678571D01*
X129714285Y-77678571D02*
X130571428Y-77678571D01*
X130142857Y-79178571D02*
X130142857Y-77678571D01*
X131071428Y-78392857D02*
X131571428Y-78392857D01*
X131785714Y-79178571D02*
X131071428Y-79178571D01*
X131071428Y-77678571D01*
X131785714Y-77678571D01*
X133285714Y-79178571D02*
X132785714Y-78464285D01*
X132428571Y-79178571D02*
X132428571Y-77678571D01*
X132999999Y-77678571D01*
X133142857Y-77750000D01*
X133214285Y-77821428D01*
X133285714Y-77964285D01*
X133285714Y-78178571D01*
X133214285Y-78321428D01*
X133142857Y-78392857D01*
X132999999Y-78464285D01*
X132428571Y-78464285D01*
X135928571Y-79035714D02*
X135857142Y-79107142D01*
X135642857Y-79178571D01*
X135500000Y-79178571D01*
X135285714Y-79107142D01*
X135142857Y-78964285D01*
X135071428Y-78821428D01*
X135000000Y-78535714D01*
X135000000Y-78321428D01*
X135071428Y-78035714D01*
X135142857Y-77892857D01*
X135285714Y-77750000D01*
X135500000Y-77678571D01*
X135642857Y-77678571D01*
X135857142Y-77750000D01*
X135928571Y-77821428D01*
X136857142Y-77678571D02*
X137142857Y-77678571D01*
X137285714Y-77750000D01*
X137428571Y-77892857D01*
X137500000Y-78178571D01*
X137500000Y-78678571D01*
X137428571Y-78964285D01*
X137285714Y-79107142D01*
X137142857Y-79178571D01*
X136857142Y-79178571D01*
X136714285Y-79107142D01*
X136571428Y-78964285D01*
X136500000Y-78678571D01*
X136500000Y-78178571D01*
X136571428Y-77892857D01*
X136714285Y-77750000D01*
X136857142Y-77678571D01*
X138142857Y-79178571D02*
X138142857Y-77678571D01*
X139000000Y-79178571D01*
X139000000Y-77678571D01*
X139500000Y-77678571D02*
X140357142Y-77678571D01*
X139928571Y-79178571D02*
X139928571Y-77678571D01*
X141714285Y-79178571D02*
X141214285Y-78464285D01*
X140857142Y-79178571D02*
X140857142Y-77678571D01*
X141428571Y-77678571D01*
X141571428Y-77750000D01*
X141642857Y-77821428D01*
X141714285Y-77964285D01*
X141714285Y-78178571D01*
X141642857Y-78321428D01*
X141571428Y-78392857D01*
X141428571Y-78464285D01*
X140857142Y-78464285D01*
X142642857Y-77678571D02*
X142928571Y-77678571D01*
X143071428Y-77750000D01*
X143214285Y-77892857D01*
X143285714Y-78178571D01*
X143285714Y-78678571D01*
X143214285Y-78964285D01*
X143071428Y-79107142D01*
X142928571Y-79178571D01*
X142642857Y-79178571D01*
X142500000Y-79107142D01*
X142357142Y-78964285D01*
X142285714Y-78678571D01*
X142285714Y-78178571D01*
X142357142Y-77892857D01*
X142500000Y-77750000D01*
X142642857Y-77678571D01*
X144642857Y-79178571D02*
X143928571Y-79178571D01*
X143928571Y-77678571D01*
X145857142Y-79178571D02*
X145142857Y-79178571D01*
X145142857Y-77678571D01*
X146357142Y-78392857D02*
X146857142Y-78392857D01*
X147071428Y-79178571D02*
X146357142Y-79178571D01*
X146357142Y-77678571D01*
X147071428Y-77678571D01*
X148571428Y-79178571D02*
X148071428Y-78464285D01*
X147714285Y-79178571D02*
X147714285Y-77678571D01*
X148285714Y-77678571D01*
X148428571Y-77750000D01*
X148500000Y-77821428D01*
X148571428Y-77964285D01*
X148571428Y-78178571D01*
X148500000Y-78321428D01*
X148428571Y-78392857D01*
X148285714Y-78464285D01*
X147714285Y-78464285D01*
X166857142Y-99607142D02*
X167071428Y-99678571D01*
X167428571Y-99678571D01*
X167571428Y-99607142D01*
X167642857Y-99535714D01*
X167714285Y-99392857D01*
X167714285Y-99250000D01*
X167642857Y-99107142D01*
X167571428Y-99035714D01*
X167428571Y-98964285D01*
X167142857Y-98892857D01*
X167000000Y-98821428D01*
X166928571Y-98750000D01*
X166857142Y-98607142D01*
X166857142Y-98464285D01*
X166928571Y-98321428D01*
X167000000Y-98250000D01*
X167142857Y-98178571D01*
X167500000Y-98178571D01*
X167714285Y-98250000D01*
X169142857Y-99678571D02*
X168285714Y-99678571D01*
X168714285Y-99678571D02*
X168714285Y-98178571D01*
X168571428Y-98392857D01*
X168428571Y-98535714D01*
X168285714Y-98607142D01*
X133785714Y-47678571D02*
X133785714Y-46178571D01*
X134285714Y-47250000D01*
X134785714Y-46178571D01*
X134785714Y-47678571D01*
X135428571Y-46321428D02*
X135500000Y-46250000D01*
X135642857Y-46178571D01*
X136000000Y-46178571D01*
X136142857Y-46250000D01*
X136214285Y-46321428D01*
X136285714Y-46464285D01*
X136285714Y-46607142D01*
X136214285Y-46821428D01*
X135357142Y-47678571D01*
X136285714Y-47678571D01*
X165000000Y-61607142D02*
X165214285Y-61678571D01*
X165571428Y-61678571D01*
X165714285Y-61607142D01*
X165785714Y-61535714D01*
X165857142Y-61392857D01*
X165857142Y-61250000D01*
X165785714Y-61107142D01*
X165714285Y-61035714D01*
X165571428Y-60964285D01*
X165285714Y-60892857D01*
X165142857Y-60821428D01*
X165071428Y-60750000D01*
X165000000Y-60607142D01*
X165000000Y-60464285D01*
X165071428Y-60321428D01*
X165142857Y-60250000D01*
X165285714Y-60178571D01*
X165642857Y-60178571D01*
X165857142Y-60250000D01*
X166357142Y-60178571D02*
X166714285Y-61678571D01*
X167000000Y-60607142D01*
X167285714Y-61678571D01*
X167642857Y-60178571D01*
X168142857Y-60321428D02*
X168214285Y-60250000D01*
X168357142Y-60178571D01*
X168714285Y-60178571D01*
X168857142Y-60250000D01*
X168928571Y-60321428D01*
X169000000Y-60464285D01*
X169000000Y-60607142D01*
X168928571Y-60821428D01*
X168071428Y-61678571D01*
X169000000Y-61678571D01*
X165857142Y-86607142D02*
X166071428Y-86678571D01*
X166428571Y-86678571D01*
X166571428Y-86607142D01*
X166642857Y-86535714D01*
X166714285Y-86392857D01*
X166714285Y-86250000D01*
X166642857Y-86107142D01*
X166571428Y-86035714D01*
X166428571Y-85964285D01*
X166142857Y-85892857D01*
X166000000Y-85821428D01*
X165928571Y-85750000D01*
X165857142Y-85607142D01*
X165857142Y-85464285D01*
X165928571Y-85321428D01*
X166000000Y-85250000D01*
X166142857Y-85178571D01*
X166500000Y-85178571D01*
X166714285Y-85250000D01*
X167285714Y-85321428D02*
X167357142Y-85250000D01*
X167500000Y-85178571D01*
X167857142Y-85178571D01*
X168000000Y-85250000D01*
X168071428Y-85321428D01*
X168142857Y-85464285D01*
X168142857Y-85607142D01*
X168071428Y-85821428D01*
X167214285Y-86678571D01*
X168142857Y-86678571D01*
X148785714Y-47678571D02*
X148785714Y-46178571D01*
X149285714Y-47250000D01*
X149785714Y-46178571D01*
X149785714Y-47678571D01*
X150357142Y-46178571D02*
X151285714Y-46178571D01*
X150785714Y-46750000D01*
X151000000Y-46750000D01*
X151142857Y-46821428D01*
X151214285Y-46892857D01*
X151285714Y-47035714D01*
X151285714Y-47392857D01*
X151214285Y-47535714D01*
X151142857Y-47607142D01*
X151000000Y-47678571D01*
X150571428Y-47678571D01*
X150428571Y-47607142D01*
X150357142Y-47535714D01*
X119785714Y-47678571D02*
X119785714Y-46178571D01*
X120285714Y-47250000D01*
X120785714Y-46178571D01*
X120785714Y-47678571D01*
X122285714Y-47678571D02*
X121428571Y-47678571D01*
X121857142Y-47678571D02*
X121857142Y-46178571D01*
X121714285Y-46392857D01*
X121571428Y-46535714D01*
X121428571Y-46607142D01*
X165000000Y-49607142D02*
X165214285Y-49678571D01*
X165571428Y-49678571D01*
X165714285Y-49607142D01*
X165785714Y-49535714D01*
X165857142Y-49392857D01*
X165857142Y-49250000D01*
X165785714Y-49107142D01*
X165714285Y-49035714D01*
X165571428Y-48964285D01*
X165285714Y-48892857D01*
X165142857Y-48821428D01*
X165071428Y-48750000D01*
X165000000Y-48607142D01*
X165000000Y-48464285D01*
X165071428Y-48321428D01*
X165142857Y-48250000D01*
X165285714Y-48178571D01*
X165642857Y-48178571D01*
X165857142Y-48250000D01*
X166357142Y-48178571D02*
X166714285Y-49678571D01*
X167000000Y-48607142D01*
X167285714Y-49678571D01*
X167642857Y-48178571D01*
X169000000Y-49678571D02*
X168142857Y-49678571D01*
X168571428Y-49678571D02*
X168571428Y-48178571D01*
X168428571Y-48392857D01*
X168285714Y-48535714D01*
X168142857Y-48607142D01*
X109071428Y-76678571D02*
X108214285Y-76678571D01*
X108642857Y-76678571D02*
X108642857Y-75178571D01*
X108500000Y-75392857D01*
X108357142Y-75535714D01*
X108214285Y-75607142D01*
X109642857Y-75321428D02*
X109714285Y-75250000D01*
X109857142Y-75178571D01*
X110214285Y-75178571D01*
X110357142Y-75250000D01*
X110428571Y-75321428D01*
X110500000Y-75464285D01*
X110500000Y-75607142D01*
X110428571Y-75821428D01*
X109571428Y-76678571D01*
X110500000Y-76678571D01*
X110928571Y-75178571D02*
X111428571Y-76678571D01*
X111928571Y-75178571D01*
X152071428Y-67035714D02*
X152000000Y-66964285D01*
X151928571Y-66821428D01*
X151928571Y-66464285D01*
X152000000Y-66321428D01*
X152071428Y-66250000D01*
X152214285Y-66178571D01*
X152357142Y-66178571D01*
X152571428Y-66250000D01*
X153428571Y-67107142D01*
X153428571Y-66178571D01*
X151928571Y-65250000D02*
X151928571Y-65107142D01*
X152000000Y-64964285D01*
X152071428Y-64892857D01*
X152214285Y-64821428D01*
X152500000Y-64750000D01*
X152857142Y-64750000D01*
X153142857Y-64821428D01*
X153285714Y-64892857D01*
X153357142Y-64964285D01*
X153428571Y-65107142D01*
X153428571Y-65250000D01*
X153357142Y-65392857D01*
X153285714Y-65464285D01*
X153142857Y-65535714D01*
X152857142Y-65607142D01*
X152500000Y-65607142D01*
X152214285Y-65535714D01*
X152071428Y-65464285D01*
X152000000Y-65392857D01*
X151928571Y-65250000D01*
X152071428Y-64178571D02*
X152000000Y-64107142D01*
X151928571Y-63964285D01*
X151928571Y-63607142D01*
X152000000Y-63464285D01*
X152071428Y-63392857D01*
X152214285Y-63321428D01*
X152357142Y-63321428D01*
X152571428Y-63392857D01*
X153428571Y-64250000D01*
X153428571Y-63321428D01*
X152071428Y-62750000D02*
X152000000Y-62678571D01*
X151928571Y-62535714D01*
X151928571Y-62178571D01*
X152000000Y-62035714D01*
X152071428Y-61964285D01*
X152214285Y-61892857D01*
X152357142Y-61892857D01*
X152571428Y-61964285D01*
X153428571Y-62821428D01*
X153428571Y-61892857D01*
X152857142Y-61250000D02*
X152857142Y-60107142D01*
X151928571Y-59107142D02*
X151928571Y-58964285D01*
X152000000Y-58821428D01*
X152071428Y-58750000D01*
X152214285Y-58678571D01*
X152500000Y-58607142D01*
X152857142Y-58607142D01*
X153142857Y-58678571D01*
X153285714Y-58750000D01*
X153357142Y-58821428D01*
X153428571Y-58964285D01*
X153428571Y-59107142D01*
X153357142Y-59250000D01*
X153285714Y-59321428D01*
X153142857Y-59392857D01*
X152857142Y-59464285D01*
X152500000Y-59464285D01*
X152214285Y-59392857D01*
X152071428Y-59321428D01*
X152000000Y-59250000D01*
X151928571Y-59107142D01*
X152428571Y-57321428D02*
X153428571Y-57321428D01*
X151857142Y-57678571D02*
X152928571Y-58035714D01*
X152928571Y-57107142D01*
X152857142Y-56535714D02*
X152857142Y-55392857D01*
X153428571Y-53892857D02*
X153428571Y-54750000D01*
X153428571Y-54321428D02*
X151928571Y-54321428D01*
X152142857Y-54464285D01*
X152285714Y-54607142D01*
X152357142Y-54750000D01*
X151928571Y-52535714D02*
X151928571Y-53250000D01*
X152642857Y-53321428D01*
X152571428Y-53250000D01*
X152500000Y-53107142D01*
X152500000Y-52750000D01*
X152571428Y-52607142D01*
X152642857Y-52535714D01*
X152785714Y-52464285D01*
X153142857Y-52464285D01*
X153285714Y-52535714D01*
X153357142Y-52607142D01*
X153428571Y-52750000D01*
X153428571Y-53107142D01*
X153357142Y-53250000D01*
X153285714Y-53321428D01*
X165000000Y-72607142D02*
X165214285Y-72678571D01*
X165571428Y-72678571D01*
X165714285Y-72607142D01*
X165785714Y-72535714D01*
X165857142Y-72392857D01*
X165857142Y-72250000D01*
X165785714Y-72107142D01*
X165714285Y-72035714D01*
X165571428Y-71964285D01*
X165285714Y-71892857D01*
X165142857Y-71821428D01*
X165071428Y-71750000D01*
X165000000Y-71607142D01*
X165000000Y-71464285D01*
X165071428Y-71321428D01*
X165142857Y-71250000D01*
X165285714Y-71178571D01*
X165642857Y-71178571D01*
X165857142Y-71250000D01*
X166357142Y-71178571D02*
X166714285Y-72678571D01*
X167000000Y-71607142D01*
X167285714Y-72678571D01*
X167642857Y-71178571D01*
X168071428Y-71178571D02*
X169000000Y-71178571D01*
X168500000Y-71750000D01*
X168714285Y-71750000D01*
X168857142Y-71821428D01*
X168928571Y-71892857D01*
X169000000Y-72035714D01*
X169000000Y-72392857D01*
X168928571Y-72535714D01*
X168857142Y-72607142D01*
X168714285Y-72678571D01*
X168285714Y-72678571D01*
X168142857Y-72607142D01*
X168071428Y-72535714D01*
D11*
%TO.C,R20*%
X157632380Y-76642857D02*
X157156190Y-76976190D01*
X157632380Y-77214285D02*
X156632380Y-77214285D01*
X156632380Y-76833333D01*
X156680000Y-76738095D01*
X156727619Y-76690476D01*
X156822857Y-76642857D01*
X156965714Y-76642857D01*
X157060952Y-76690476D01*
X157108571Y-76738095D01*
X157156190Y-76833333D01*
X157156190Y-77214285D01*
X156727619Y-76261904D02*
X156680000Y-76214285D01*
X156632380Y-76119047D01*
X156632380Y-75880952D01*
X156680000Y-75785714D01*
X156727619Y-75738095D01*
X156822857Y-75690476D01*
X156918095Y-75690476D01*
X157060952Y-75738095D01*
X157632380Y-76309523D01*
X157632380Y-75690476D01*
X156632380Y-75071428D02*
X156632380Y-74976190D01*
X156680000Y-74880952D01*
X156727619Y-74833333D01*
X156822857Y-74785714D01*
X157013333Y-74738095D01*
X157251428Y-74738095D01*
X157441904Y-74785714D01*
X157537142Y-74833333D01*
X157584761Y-74880952D01*
X157632380Y-74976190D01*
X157632380Y-75071428D01*
X157584761Y-75166666D01*
X157537142Y-75214285D01*
X157441904Y-75261904D01*
X157251428Y-75309523D01*
X157013333Y-75309523D01*
X156822857Y-75261904D01*
X156727619Y-75214285D01*
X156680000Y-75166666D01*
X156632380Y-75071428D01*
%TO.C,C1*%
X149207142Y-66166666D02*
X149254761Y-66214285D01*
X149302380Y-66357142D01*
X149302380Y-66452380D01*
X149254761Y-66595238D01*
X149159523Y-66690476D01*
X149064285Y-66738095D01*
X148873809Y-66785714D01*
X148730952Y-66785714D01*
X148540476Y-66738095D01*
X148445238Y-66690476D01*
X148350000Y-66595238D01*
X148302380Y-66452380D01*
X148302380Y-66357142D01*
X148350000Y-66214285D01*
X148397619Y-66166666D01*
X149302380Y-65214285D02*
X149302380Y-65785714D01*
X149302380Y-65500000D02*
X148302380Y-65500000D01*
X148445238Y-65595238D01*
X148540476Y-65690476D01*
X148588095Y-65785714D01*
%TO.C,C20*%
X129207142Y-66642857D02*
X129254761Y-66690476D01*
X129302380Y-66833333D01*
X129302380Y-66928571D01*
X129254761Y-67071428D01*
X129159523Y-67166666D01*
X129064285Y-67214285D01*
X128873809Y-67261904D01*
X128730952Y-67261904D01*
X128540476Y-67214285D01*
X128445238Y-67166666D01*
X128350000Y-67071428D01*
X128302380Y-66928571D01*
X128302380Y-66833333D01*
X128350000Y-66690476D01*
X128397619Y-66642857D01*
X128397619Y-66261904D02*
X128350000Y-66214285D01*
X128302380Y-66119047D01*
X128302380Y-65880952D01*
X128350000Y-65785714D01*
X128397619Y-65738095D01*
X128492857Y-65690476D01*
X128588095Y-65690476D01*
X128730952Y-65738095D01*
X129302380Y-66309523D01*
X129302380Y-65690476D01*
X128302380Y-65071428D02*
X128302380Y-64976190D01*
X128350000Y-64880952D01*
X128397619Y-64833333D01*
X128492857Y-64785714D01*
X128683333Y-64738095D01*
X128921428Y-64738095D01*
X129111904Y-64785714D01*
X129207142Y-64833333D01*
X129254761Y-64880952D01*
X129302380Y-64976190D01*
X129302380Y-65071428D01*
X129254761Y-65166666D01*
X129207142Y-65214285D01*
X129111904Y-65261904D01*
X128921428Y-65309523D01*
X128683333Y-65309523D01*
X128492857Y-65261904D01*
X128397619Y-65214285D01*
X128350000Y-65166666D01*
X128302380Y-65071428D01*
%TO.C,C29*%
X130357142Y-94205357D02*
X130404761Y-94252976D01*
X130452380Y-94395833D01*
X130452380Y-94491071D01*
X130404761Y-94633928D01*
X130309523Y-94729166D01*
X130214285Y-94776785D01*
X130023809Y-94824404D01*
X129880952Y-94824404D01*
X129690476Y-94776785D01*
X129595238Y-94729166D01*
X129500000Y-94633928D01*
X129452380Y-94491071D01*
X129452380Y-94395833D01*
X129500000Y-94252976D01*
X129547619Y-94205357D01*
X129547619Y-93824404D02*
X129500000Y-93776785D01*
X129452380Y-93681547D01*
X129452380Y-93443452D01*
X129500000Y-93348214D01*
X129547619Y-93300595D01*
X129642857Y-93252976D01*
X129738095Y-93252976D01*
X129880952Y-93300595D01*
X130452380Y-93872023D01*
X130452380Y-93252976D01*
X130452380Y-92776785D02*
X130452380Y-92586309D01*
X130404761Y-92491071D01*
X130357142Y-92443452D01*
X130214285Y-92348214D01*
X130023809Y-92300595D01*
X129642857Y-92300595D01*
X129547619Y-92348214D01*
X129500000Y-92395833D01*
X129452380Y-92491071D01*
X129452380Y-92681547D01*
X129500000Y-92776785D01*
X129547619Y-92824404D01*
X129642857Y-92872023D01*
X129880952Y-92872023D01*
X129976190Y-92824404D01*
X130023809Y-92776785D01*
X130071428Y-92681547D01*
X130071428Y-92491071D01*
X130023809Y-92395833D01*
X129976190Y-92348214D01*
X129880952Y-92300595D01*
%TO.C,C26*%
X126357142Y-86507142D02*
X126309523Y-86554761D01*
X126166666Y-86602380D01*
X126071428Y-86602380D01*
X125928571Y-86554761D01*
X125833333Y-86459523D01*
X125785714Y-86364285D01*
X125738095Y-86173809D01*
X125738095Y-86030952D01*
X125785714Y-85840476D01*
X125833333Y-85745238D01*
X125928571Y-85650000D01*
X126071428Y-85602380D01*
X126166666Y-85602380D01*
X126309523Y-85650000D01*
X126357142Y-85697619D01*
X126738095Y-85697619D02*
X126785714Y-85650000D01*
X126880952Y-85602380D01*
X127119047Y-85602380D01*
X127214285Y-85650000D01*
X127261904Y-85697619D01*
X127309523Y-85792857D01*
X127309523Y-85888095D01*
X127261904Y-86030952D01*
X126690476Y-86602380D01*
X127309523Y-86602380D01*
X128166666Y-85602380D02*
X127976190Y-85602380D01*
X127880952Y-85650000D01*
X127833333Y-85697619D01*
X127738095Y-85840476D01*
X127690476Y-86030952D01*
X127690476Y-86411904D01*
X127738095Y-86507142D01*
X127785714Y-86554761D01*
X127880952Y-86602380D01*
X128071428Y-86602380D01*
X128166666Y-86554761D01*
X128214285Y-86507142D01*
X128261904Y-86411904D01*
X128261904Y-86173809D01*
X128214285Y-86078571D01*
X128166666Y-86030952D01*
X128071428Y-85983333D01*
X127880952Y-85983333D01*
X127785714Y-86030952D01*
X127738095Y-86078571D01*
X127690476Y-86173809D01*
%TO.C,R5*%
X123833333Y-69632380D02*
X123500000Y-69156190D01*
X123261904Y-69632380D02*
X123261904Y-68632380D01*
X123642857Y-68632380D01*
X123738095Y-68680000D01*
X123785714Y-68727619D01*
X123833333Y-68822857D01*
X123833333Y-68965714D01*
X123785714Y-69060952D01*
X123738095Y-69108571D01*
X123642857Y-69156190D01*
X123261904Y-69156190D01*
X124738095Y-68632380D02*
X124261904Y-68632380D01*
X124214285Y-69108571D01*
X124261904Y-69060952D01*
X124357142Y-69013333D01*
X124595238Y-69013333D01*
X124690476Y-69060952D01*
X124738095Y-69108571D01*
X124785714Y-69203809D01*
X124785714Y-69441904D01*
X124738095Y-69537142D01*
X124690476Y-69584761D01*
X124595238Y-69632380D01*
X124357142Y-69632380D01*
X124261904Y-69584761D01*
X124214285Y-69537142D01*
%TO.C,C5*%
X129833333Y-55157142D02*
X129785714Y-55204761D01*
X129642857Y-55252380D01*
X129547619Y-55252380D01*
X129404761Y-55204761D01*
X129309523Y-55109523D01*
X129261904Y-55014285D01*
X129214285Y-54823809D01*
X129214285Y-54680952D01*
X129261904Y-54490476D01*
X129309523Y-54395238D01*
X129404761Y-54300000D01*
X129547619Y-54252380D01*
X129642857Y-54252380D01*
X129785714Y-54300000D01*
X129833333Y-54347619D01*
X130738095Y-54252380D02*
X130261904Y-54252380D01*
X130214285Y-54728571D01*
X130261904Y-54680952D01*
X130357142Y-54633333D01*
X130595238Y-54633333D01*
X130690476Y-54680952D01*
X130738095Y-54728571D01*
X130785714Y-54823809D01*
X130785714Y-55061904D01*
X130738095Y-55157142D01*
X130690476Y-55204761D01*
X130595238Y-55252380D01*
X130357142Y-55252380D01*
X130261904Y-55204761D01*
X130214285Y-55157142D01*
%TO.C,C11*%
X108457142Y-64642857D02*
X108504761Y-64690476D01*
X108552380Y-64833333D01*
X108552380Y-64928571D01*
X108504761Y-65071428D01*
X108409523Y-65166666D01*
X108314285Y-65214285D01*
X108123809Y-65261904D01*
X107980952Y-65261904D01*
X107790476Y-65214285D01*
X107695238Y-65166666D01*
X107600000Y-65071428D01*
X107552380Y-64928571D01*
X107552380Y-64833333D01*
X107600000Y-64690476D01*
X107647619Y-64642857D01*
X108552380Y-63690476D02*
X108552380Y-64261904D01*
X108552380Y-63976190D02*
X107552380Y-63976190D01*
X107695238Y-64071428D01*
X107790476Y-64166666D01*
X107838095Y-64261904D01*
X108552380Y-62738095D02*
X108552380Y-63309523D01*
X108552380Y-63023809D02*
X107552380Y-63023809D01*
X107695238Y-63119047D01*
X107790476Y-63214285D01*
X107838095Y-63309523D01*
%TO.C,C25*%
X152357142Y-90207142D02*
X152309523Y-90254761D01*
X152166666Y-90302380D01*
X152071428Y-90302380D01*
X151928571Y-90254761D01*
X151833333Y-90159523D01*
X151785714Y-90064285D01*
X151738095Y-89873809D01*
X151738095Y-89730952D01*
X151785714Y-89540476D01*
X151833333Y-89445238D01*
X151928571Y-89350000D01*
X152071428Y-89302380D01*
X152166666Y-89302380D01*
X152309523Y-89350000D01*
X152357142Y-89397619D01*
X152738095Y-89397619D02*
X152785714Y-89350000D01*
X152880952Y-89302380D01*
X153119047Y-89302380D01*
X153214285Y-89350000D01*
X153261904Y-89397619D01*
X153309523Y-89492857D01*
X153309523Y-89588095D01*
X153261904Y-89730952D01*
X152690476Y-90302380D01*
X153309523Y-90302380D01*
X154214285Y-89302380D02*
X153738095Y-89302380D01*
X153690476Y-89778571D01*
X153738095Y-89730952D01*
X153833333Y-89683333D01*
X154071428Y-89683333D01*
X154166666Y-89730952D01*
X154214285Y-89778571D01*
X154261904Y-89873809D01*
X154261904Y-90111904D01*
X154214285Y-90207142D01*
X154166666Y-90254761D01*
X154071428Y-90302380D01*
X153833333Y-90302380D01*
X153738095Y-90254761D01*
X153690476Y-90207142D01*
%TO.C,J11*%
X109740476Y-87244880D02*
X109740476Y-87959166D01*
X109692857Y-88102023D01*
X109597619Y-88197261D01*
X109454761Y-88244880D01*
X109359523Y-88244880D01*
X110740476Y-88244880D02*
X110169047Y-88244880D01*
X110454761Y-88244880D02*
X110454761Y-87244880D01*
X110359523Y-87387738D01*
X110264285Y-87482976D01*
X110169047Y-87530595D01*
X111692857Y-88244880D02*
X111121428Y-88244880D01*
X111407142Y-88244880D02*
X111407142Y-87244880D01*
X111311904Y-87387738D01*
X111216666Y-87482976D01*
X111121428Y-87530595D01*
%TO.C,C24*%
X152357142Y-78207142D02*
X152309523Y-78254761D01*
X152166666Y-78302380D01*
X152071428Y-78302380D01*
X151928571Y-78254761D01*
X151833333Y-78159523D01*
X151785714Y-78064285D01*
X151738095Y-77873809D01*
X151738095Y-77730952D01*
X151785714Y-77540476D01*
X151833333Y-77445238D01*
X151928571Y-77350000D01*
X152071428Y-77302380D01*
X152166666Y-77302380D01*
X152309523Y-77350000D01*
X152357142Y-77397619D01*
X152738095Y-77397619D02*
X152785714Y-77350000D01*
X152880952Y-77302380D01*
X153119047Y-77302380D01*
X153214285Y-77350000D01*
X153261904Y-77397619D01*
X153309523Y-77492857D01*
X153309523Y-77588095D01*
X153261904Y-77730952D01*
X152690476Y-78302380D01*
X153309523Y-78302380D01*
X154166666Y-77635714D02*
X154166666Y-78302380D01*
X153928571Y-77254761D02*
X153690476Y-77969047D01*
X154309523Y-77969047D01*
%TO.C,C21*%
X115207142Y-66642857D02*
X115254761Y-66690476D01*
X115302380Y-66833333D01*
X115302380Y-66928571D01*
X115254761Y-67071428D01*
X115159523Y-67166666D01*
X115064285Y-67214285D01*
X114873809Y-67261904D01*
X114730952Y-67261904D01*
X114540476Y-67214285D01*
X114445238Y-67166666D01*
X114350000Y-67071428D01*
X114302380Y-66928571D01*
X114302380Y-66833333D01*
X114350000Y-66690476D01*
X114397619Y-66642857D01*
X114397619Y-66261904D02*
X114350000Y-66214285D01*
X114302380Y-66119047D01*
X114302380Y-65880952D01*
X114350000Y-65785714D01*
X114397619Y-65738095D01*
X114492857Y-65690476D01*
X114588095Y-65690476D01*
X114730952Y-65738095D01*
X115302380Y-66309523D01*
X115302380Y-65690476D01*
X115302380Y-64738095D02*
X115302380Y-65309523D01*
X115302380Y-65023809D02*
X114302380Y-65023809D01*
X114445238Y-65119047D01*
X114540476Y-65214285D01*
X114588095Y-65309523D01*
%TO.C,U3*%
X119202380Y-59761904D02*
X120011904Y-59761904D01*
X120107142Y-59714285D01*
X120154761Y-59666666D01*
X120202380Y-59571428D01*
X120202380Y-59380952D01*
X120154761Y-59285714D01*
X120107142Y-59238095D01*
X120011904Y-59190476D01*
X119202380Y-59190476D01*
X119202380Y-58809523D02*
X119202380Y-58190476D01*
X119583333Y-58523809D01*
X119583333Y-58380952D01*
X119630952Y-58285714D01*
X119678571Y-58238095D01*
X119773809Y-58190476D01*
X120011904Y-58190476D01*
X120107142Y-58238095D01*
X120154761Y-58285714D01*
X120202380Y-58380952D01*
X120202380Y-58666666D01*
X120154761Y-58761904D01*
X120107142Y-58809523D01*
X112738095Y-62352380D02*
X113309523Y-62352380D01*
X113023809Y-63352380D02*
X113023809Y-62352380D01*
X113642857Y-63352380D02*
X113642857Y-62352380D01*
X113976190Y-63066666D01*
X114309523Y-62352380D01*
X114309523Y-63352380D01*
X115357142Y-63257142D02*
X115309523Y-63304761D01*
X115166666Y-63352380D01*
X115071428Y-63352380D01*
X114928571Y-63304761D01*
X114833333Y-63209523D01*
X114785714Y-63114285D01*
X114738095Y-62923809D01*
X114738095Y-62780952D01*
X114785714Y-62590476D01*
X114833333Y-62495238D01*
X114928571Y-62400000D01*
X115071428Y-62352380D01*
X115166666Y-62352380D01*
X115309523Y-62400000D01*
X115357142Y-62447619D01*
X115738095Y-62447619D02*
X115785714Y-62400000D01*
X115880952Y-62352380D01*
X116119047Y-62352380D01*
X116214285Y-62400000D01*
X116261904Y-62447619D01*
X116309523Y-62542857D01*
X116309523Y-62638095D01*
X116261904Y-62780952D01*
X115690476Y-63352380D01*
X116309523Y-63352380D01*
X116690476Y-62447619D02*
X116738095Y-62400000D01*
X116833333Y-62352380D01*
X117071428Y-62352380D01*
X117166666Y-62400000D01*
X117214285Y-62447619D01*
X117261904Y-62542857D01*
X117261904Y-62638095D01*
X117214285Y-62780952D01*
X116642857Y-63352380D01*
X117261904Y-63352380D01*
X117880952Y-62352380D02*
X117976190Y-62352380D01*
X118071428Y-62400000D01*
X118119047Y-62447619D01*
X118166666Y-62542857D01*
X118214285Y-62733333D01*
X118214285Y-62971428D01*
X118166666Y-63161904D01*
X118119047Y-63257142D01*
X118071428Y-63304761D01*
X117976190Y-63352380D01*
X117880952Y-63352380D01*
X117785714Y-63304761D01*
X117738095Y-63257142D01*
X117690476Y-63161904D01*
X117642857Y-62971428D01*
X117642857Y-62733333D01*
X117690476Y-62542857D01*
X117738095Y-62447619D01*
X117785714Y-62400000D01*
X117880952Y-62352380D01*
X118785714Y-62780952D02*
X118690476Y-62733333D01*
X118642857Y-62685714D01*
X118595238Y-62590476D01*
X118595238Y-62542857D01*
X118642857Y-62447619D01*
X118690476Y-62400000D01*
X118785714Y-62352380D01*
X118976190Y-62352380D01*
X119071428Y-62400000D01*
X119119047Y-62447619D01*
X119166666Y-62542857D01*
X119166666Y-62590476D01*
X119119047Y-62685714D01*
X119071428Y-62733333D01*
X118976190Y-62780952D01*
X118785714Y-62780952D01*
X118690476Y-62828571D01*
X118642857Y-62876190D01*
X118595238Y-62971428D01*
X118595238Y-63161904D01*
X118642857Y-63257142D01*
X118690476Y-63304761D01*
X118785714Y-63352380D01*
X118976190Y-63352380D01*
X119071428Y-63304761D01*
X119119047Y-63257142D01*
X119166666Y-63161904D01*
X119166666Y-62971428D01*
X119119047Y-62876190D01*
X119071428Y-62828571D01*
X118976190Y-62780952D01*
X112410700Y-56952380D02*
X112410700Y-57190476D01*
X112172604Y-57095238D02*
X112410700Y-57190476D01*
X112648795Y-57095238D01*
X112267842Y-57380952D02*
X112410700Y-57190476D01*
X112553557Y-57380952D01*
%TO.C,J1*%
X165307380Y-102328333D02*
X166021666Y-102328333D01*
X166164523Y-102375952D01*
X166259761Y-102471190D01*
X166307380Y-102614047D01*
X166307380Y-102709285D01*
X166307380Y-101328333D02*
X166307380Y-101899761D01*
X166307380Y-101614047D02*
X165307380Y-101614047D01*
X165450238Y-101709285D01*
X165545476Y-101804523D01*
X165593095Y-101899761D01*
%TO.C,C22*%
X138357142Y-107357142D02*
X138309523Y-107404761D01*
X138166666Y-107452380D01*
X138071428Y-107452380D01*
X137928571Y-107404761D01*
X137833333Y-107309523D01*
X137785714Y-107214285D01*
X137738095Y-107023809D01*
X137738095Y-106880952D01*
X137785714Y-106690476D01*
X137833333Y-106595238D01*
X137928571Y-106500000D01*
X138071428Y-106452380D01*
X138166666Y-106452380D01*
X138309523Y-106500000D01*
X138357142Y-106547619D01*
X138738095Y-106547619D02*
X138785714Y-106500000D01*
X138880952Y-106452380D01*
X139119047Y-106452380D01*
X139214285Y-106500000D01*
X139261904Y-106547619D01*
X139309523Y-106642857D01*
X139309523Y-106738095D01*
X139261904Y-106880952D01*
X138690476Y-107452380D01*
X139309523Y-107452380D01*
X139690476Y-106547619D02*
X139738095Y-106500000D01*
X139833333Y-106452380D01*
X140071428Y-106452380D01*
X140166666Y-106500000D01*
X140214285Y-106547619D01*
X140261904Y-106642857D01*
X140261904Y-106738095D01*
X140214285Y-106880952D01*
X139642857Y-107452380D01*
X140261904Y-107452380D01*
%TO.C,C3*%
X121207142Y-66166666D02*
X121254761Y-66214285D01*
X121302380Y-66357142D01*
X121302380Y-66452380D01*
X121254761Y-66595238D01*
X121159523Y-66690476D01*
X121064285Y-66738095D01*
X120873809Y-66785714D01*
X120730952Y-66785714D01*
X120540476Y-66738095D01*
X120445238Y-66690476D01*
X120350000Y-66595238D01*
X120302380Y-66452380D01*
X120302380Y-66357142D01*
X120350000Y-66214285D01*
X120397619Y-66166666D01*
X120302380Y-65833333D02*
X120302380Y-65214285D01*
X120683333Y-65547619D01*
X120683333Y-65404761D01*
X120730952Y-65309523D01*
X120778571Y-65261904D01*
X120873809Y-65214285D01*
X121111904Y-65214285D01*
X121207142Y-65261904D01*
X121254761Y-65309523D01*
X121302380Y-65404761D01*
X121302380Y-65690476D01*
X121254761Y-65785714D01*
X121207142Y-65833333D01*
%TO.C,Y1*%
X156676190Y-85176190D02*
X157152380Y-85176190D01*
X156152380Y-85509523D02*
X156676190Y-85176190D01*
X156152380Y-84842857D01*
X157152380Y-83985714D02*
X157152380Y-84557142D01*
X157152380Y-84271428D02*
X156152380Y-84271428D01*
X156295238Y-84366666D01*
X156390476Y-84461904D01*
X156438095Y-84557142D01*
%TO.C,U2*%
X133202380Y-59761904D02*
X134011904Y-59761904D01*
X134107142Y-59714285D01*
X134154761Y-59666666D01*
X134202380Y-59571428D01*
X134202380Y-59380952D01*
X134154761Y-59285714D01*
X134107142Y-59238095D01*
X134011904Y-59190476D01*
X133202380Y-59190476D01*
X133297619Y-58761904D02*
X133250000Y-58714285D01*
X133202380Y-58619047D01*
X133202380Y-58380952D01*
X133250000Y-58285714D01*
X133297619Y-58238095D01*
X133392857Y-58190476D01*
X133488095Y-58190476D01*
X133630952Y-58238095D01*
X134202380Y-58809523D01*
X134202380Y-58190476D01*
X126738095Y-62352380D02*
X127309523Y-62352380D01*
X127023809Y-63352380D02*
X127023809Y-62352380D01*
X127642857Y-63352380D02*
X127642857Y-62352380D01*
X127976190Y-63066666D01*
X128309523Y-62352380D01*
X128309523Y-63352380D01*
X129357142Y-63257142D02*
X129309523Y-63304761D01*
X129166666Y-63352380D01*
X129071428Y-63352380D01*
X128928571Y-63304761D01*
X128833333Y-63209523D01*
X128785714Y-63114285D01*
X128738095Y-62923809D01*
X128738095Y-62780952D01*
X128785714Y-62590476D01*
X128833333Y-62495238D01*
X128928571Y-62400000D01*
X129071428Y-62352380D01*
X129166666Y-62352380D01*
X129309523Y-62400000D01*
X129357142Y-62447619D01*
X129738095Y-62447619D02*
X129785714Y-62400000D01*
X129880952Y-62352380D01*
X130119047Y-62352380D01*
X130214285Y-62400000D01*
X130261904Y-62447619D01*
X130309523Y-62542857D01*
X130309523Y-62638095D01*
X130261904Y-62780952D01*
X129690476Y-63352380D01*
X130309523Y-63352380D01*
X130690476Y-62447619D02*
X130738095Y-62400000D01*
X130833333Y-62352380D01*
X131071428Y-62352380D01*
X131166666Y-62400000D01*
X131214285Y-62447619D01*
X131261904Y-62542857D01*
X131261904Y-62638095D01*
X131214285Y-62780952D01*
X130642857Y-63352380D01*
X131261904Y-63352380D01*
X131880952Y-62352380D02*
X131976190Y-62352380D01*
X132071428Y-62400000D01*
X132119047Y-62447619D01*
X132166666Y-62542857D01*
X132214285Y-62733333D01*
X132214285Y-62971428D01*
X132166666Y-63161904D01*
X132119047Y-63257142D01*
X132071428Y-63304761D01*
X131976190Y-63352380D01*
X131880952Y-63352380D01*
X131785714Y-63304761D01*
X131738095Y-63257142D01*
X131690476Y-63161904D01*
X131642857Y-62971428D01*
X131642857Y-62733333D01*
X131690476Y-62542857D01*
X131738095Y-62447619D01*
X131785714Y-62400000D01*
X131880952Y-62352380D01*
X132785714Y-62780952D02*
X132690476Y-62733333D01*
X132642857Y-62685714D01*
X132595238Y-62590476D01*
X132595238Y-62542857D01*
X132642857Y-62447619D01*
X132690476Y-62400000D01*
X132785714Y-62352380D01*
X132976190Y-62352380D01*
X133071428Y-62400000D01*
X133119047Y-62447619D01*
X133166666Y-62542857D01*
X133166666Y-62590476D01*
X133119047Y-62685714D01*
X133071428Y-62733333D01*
X132976190Y-62780952D01*
X132785714Y-62780952D01*
X132690476Y-62828571D01*
X132642857Y-62876190D01*
X132595238Y-62971428D01*
X132595238Y-63161904D01*
X132642857Y-63257142D01*
X132690476Y-63304761D01*
X132785714Y-63352380D01*
X132976190Y-63352380D01*
X133071428Y-63304761D01*
X133119047Y-63257142D01*
X133166666Y-63161904D01*
X133166666Y-62971428D01*
X133119047Y-62876190D01*
X133071428Y-62828571D01*
X132976190Y-62780952D01*
X126410700Y-56952380D02*
X126410700Y-57190476D01*
X126172604Y-57095238D02*
X126410700Y-57190476D01*
X126648795Y-57095238D01*
X126267842Y-57380952D02*
X126410700Y-57190476D01*
X126553557Y-57380952D01*
%TO.C,FB2*%
X114008571Y-104833333D02*
X114008571Y-105166666D01*
X114532380Y-105166666D02*
X113532380Y-105166666D01*
X113532380Y-104690476D01*
X114008571Y-103976190D02*
X114056190Y-103833333D01*
X114103809Y-103785714D01*
X114199047Y-103738095D01*
X114341904Y-103738095D01*
X114437142Y-103785714D01*
X114484761Y-103833333D01*
X114532380Y-103928571D01*
X114532380Y-104309523D01*
X113532380Y-104309523D01*
X113532380Y-103976190D01*
X113580000Y-103880952D01*
X113627619Y-103833333D01*
X113722857Y-103785714D01*
X113818095Y-103785714D01*
X113913333Y-103833333D01*
X113960952Y-103880952D01*
X114008571Y-103976190D01*
X114008571Y-104309523D01*
X113627619Y-103357142D02*
X113580000Y-103309523D01*
X113532380Y-103214285D01*
X113532380Y-102976190D01*
X113580000Y-102880952D01*
X113627619Y-102833333D01*
X113722857Y-102785714D01*
X113818095Y-102785714D01*
X113960952Y-102833333D01*
X114532380Y-103404761D01*
X114532380Y-102785714D01*
%TO.C,D8*%
X156766666Y-40704761D02*
X156909523Y-40752380D01*
X157147619Y-40752380D01*
X157242857Y-40704761D01*
X157290476Y-40657142D01*
X157338095Y-40561904D01*
X157338095Y-40466666D01*
X157290476Y-40371428D01*
X157242857Y-40323809D01*
X157147619Y-40276190D01*
X156957142Y-40228571D01*
X156861904Y-40180952D01*
X156814285Y-40133333D01*
X156766666Y-40038095D01*
X156766666Y-39942857D01*
X156814285Y-39847619D01*
X156861904Y-39800000D01*
X156957142Y-39752380D01*
X157195238Y-39752380D01*
X157338095Y-39800000D01*
X157671428Y-39752380D02*
X157909523Y-40752380D01*
X158100000Y-40038095D01*
X158290476Y-40752380D01*
X158528571Y-39752380D01*
X159433333Y-40752380D02*
X158861904Y-40752380D01*
X159147619Y-40752380D02*
X159147619Y-39752380D01*
X159052380Y-39895238D01*
X158957142Y-39990476D01*
X158861904Y-40038095D01*
%TO.C,C27*%
X126357142Y-82507142D02*
X126309523Y-82554761D01*
X126166666Y-82602380D01*
X126071428Y-82602380D01*
X125928571Y-82554761D01*
X125833333Y-82459523D01*
X125785714Y-82364285D01*
X125738095Y-82173809D01*
X125738095Y-82030952D01*
X125785714Y-81840476D01*
X125833333Y-81745238D01*
X125928571Y-81650000D01*
X126071428Y-81602380D01*
X126166666Y-81602380D01*
X126309523Y-81650000D01*
X126357142Y-81697619D01*
X126738095Y-81697619D02*
X126785714Y-81650000D01*
X126880952Y-81602380D01*
X127119047Y-81602380D01*
X127214285Y-81650000D01*
X127261904Y-81697619D01*
X127309523Y-81792857D01*
X127309523Y-81888095D01*
X127261904Y-82030952D01*
X126690476Y-82602380D01*
X127309523Y-82602380D01*
X127642857Y-81602380D02*
X128309523Y-81602380D01*
X127880952Y-82602380D01*
%TO.C,R12*%
X157357142Y-57632380D02*
X157023809Y-57156190D01*
X156785714Y-57632380D02*
X156785714Y-56632380D01*
X157166666Y-56632380D01*
X157261904Y-56680000D01*
X157309523Y-56727619D01*
X157357142Y-56822857D01*
X157357142Y-56965714D01*
X157309523Y-57060952D01*
X157261904Y-57108571D01*
X157166666Y-57156190D01*
X156785714Y-57156190D01*
X158309523Y-57632380D02*
X157738095Y-57632380D01*
X158023809Y-57632380D02*
X158023809Y-56632380D01*
X157928571Y-56775238D01*
X157833333Y-56870476D01*
X157738095Y-56918095D01*
X158690476Y-56727619D02*
X158738095Y-56680000D01*
X158833333Y-56632380D01*
X159071428Y-56632380D01*
X159166666Y-56680000D01*
X159214285Y-56727619D01*
X159261904Y-56822857D01*
X159261904Y-56918095D01*
X159214285Y-57060952D01*
X158642857Y-57632380D01*
X159261904Y-57632380D01*
%TO.C,C6*%
X115733333Y-55257142D02*
X115685714Y-55304761D01*
X115542857Y-55352380D01*
X115447619Y-55352380D01*
X115304761Y-55304761D01*
X115209523Y-55209523D01*
X115161904Y-55114285D01*
X115114285Y-54923809D01*
X115114285Y-54780952D01*
X115161904Y-54590476D01*
X115209523Y-54495238D01*
X115304761Y-54400000D01*
X115447619Y-54352380D01*
X115542857Y-54352380D01*
X115685714Y-54400000D01*
X115733333Y-54447619D01*
X116590476Y-54352380D02*
X116400000Y-54352380D01*
X116304761Y-54400000D01*
X116257142Y-54447619D01*
X116161904Y-54590476D01*
X116114285Y-54780952D01*
X116114285Y-55161904D01*
X116161904Y-55257142D01*
X116209523Y-55304761D01*
X116304761Y-55352380D01*
X116495238Y-55352380D01*
X116590476Y-55304761D01*
X116638095Y-55257142D01*
X116685714Y-55161904D01*
X116685714Y-54923809D01*
X116638095Y-54828571D01*
X116590476Y-54780952D01*
X116495238Y-54733333D01*
X116304761Y-54733333D01*
X116209523Y-54780952D01*
X116161904Y-54828571D01*
X116114285Y-54923809D01*
%TO.C,C7*%
X136833333Y-64207142D02*
X136785714Y-64254761D01*
X136642857Y-64302380D01*
X136547619Y-64302380D01*
X136404761Y-64254761D01*
X136309523Y-64159523D01*
X136261904Y-64064285D01*
X136214285Y-63873809D01*
X136214285Y-63730952D01*
X136261904Y-63540476D01*
X136309523Y-63445238D01*
X136404761Y-63350000D01*
X136547619Y-63302380D01*
X136642857Y-63302380D01*
X136785714Y-63350000D01*
X136833333Y-63397619D01*
X137166666Y-63302380D02*
X137833333Y-63302380D01*
X137404761Y-64302380D01*
%TO.C,R2*%
X142632380Y-102166666D02*
X142156190Y-102500000D01*
X142632380Y-102738095D02*
X141632380Y-102738095D01*
X141632380Y-102357142D01*
X141680000Y-102261904D01*
X141727619Y-102214285D01*
X141822857Y-102166666D01*
X141965714Y-102166666D01*
X142060952Y-102214285D01*
X142108571Y-102261904D01*
X142156190Y-102357142D01*
X142156190Y-102738095D01*
X141727619Y-101785714D02*
X141680000Y-101738095D01*
X141632380Y-101642857D01*
X141632380Y-101404761D01*
X141680000Y-101309523D01*
X141727619Y-101261904D01*
X141822857Y-101214285D01*
X141918095Y-101214285D01*
X142060952Y-101261904D01*
X142632380Y-101833333D01*
X142632380Y-101214285D01*
%TO.C,C9*%
X122833333Y-64207142D02*
X122785714Y-64254761D01*
X122642857Y-64302380D01*
X122547619Y-64302380D01*
X122404761Y-64254761D01*
X122309523Y-64159523D01*
X122261904Y-64064285D01*
X122214285Y-63873809D01*
X122214285Y-63730952D01*
X122261904Y-63540476D01*
X122309523Y-63445238D01*
X122404761Y-63350000D01*
X122547619Y-63302380D01*
X122642857Y-63302380D01*
X122785714Y-63350000D01*
X122833333Y-63397619D01*
X123309523Y-64302380D02*
X123500000Y-64302380D01*
X123595238Y-64254761D01*
X123642857Y-64207142D01*
X123738095Y-64064285D01*
X123785714Y-63873809D01*
X123785714Y-63492857D01*
X123738095Y-63397619D01*
X123690476Y-63350000D01*
X123595238Y-63302380D01*
X123404761Y-63302380D01*
X123309523Y-63350000D01*
X123261904Y-63397619D01*
X123214285Y-63492857D01*
X123214285Y-63730952D01*
X123261904Y-63826190D01*
X123309523Y-63873809D01*
X123404761Y-63921428D01*
X123595238Y-63921428D01*
X123690476Y-63873809D01*
X123738095Y-63826190D01*
X123785714Y-63730952D01*
%TO.C,R3*%
X152833333Y-98272380D02*
X152500000Y-97796190D01*
X152261904Y-98272380D02*
X152261904Y-97272380D01*
X152642857Y-97272380D01*
X152738095Y-97320000D01*
X152785714Y-97367619D01*
X152833333Y-97462857D01*
X152833333Y-97605714D01*
X152785714Y-97700952D01*
X152738095Y-97748571D01*
X152642857Y-97796190D01*
X152261904Y-97796190D01*
X153166666Y-97272380D02*
X153785714Y-97272380D01*
X153452380Y-97653333D01*
X153595238Y-97653333D01*
X153690476Y-97700952D01*
X153738095Y-97748571D01*
X153785714Y-97843809D01*
X153785714Y-98081904D01*
X153738095Y-98177142D01*
X153690476Y-98224761D01*
X153595238Y-98272380D01*
X153309523Y-98272380D01*
X153214285Y-98224761D01*
X153166666Y-98177142D01*
%TO.C,C4*%
X143833333Y-55157142D02*
X143785714Y-55204761D01*
X143642857Y-55252380D01*
X143547619Y-55252380D01*
X143404761Y-55204761D01*
X143309523Y-55109523D01*
X143261904Y-55014285D01*
X143214285Y-54823809D01*
X143214285Y-54680952D01*
X143261904Y-54490476D01*
X143309523Y-54395238D01*
X143404761Y-54300000D01*
X143547619Y-54252380D01*
X143642857Y-54252380D01*
X143785714Y-54300000D01*
X143833333Y-54347619D01*
X144690476Y-54585714D02*
X144690476Y-55252380D01*
X144452380Y-54204761D02*
X144214285Y-54919047D01*
X144833333Y-54919047D01*
%TO.C,C2*%
X135207142Y-66166666D02*
X135254761Y-66214285D01*
X135302380Y-66357142D01*
X135302380Y-66452380D01*
X135254761Y-66595238D01*
X135159523Y-66690476D01*
X135064285Y-66738095D01*
X134873809Y-66785714D01*
X134730952Y-66785714D01*
X134540476Y-66738095D01*
X134445238Y-66690476D01*
X134350000Y-66595238D01*
X134302380Y-66452380D01*
X134302380Y-66357142D01*
X134350000Y-66214285D01*
X134397619Y-66166666D01*
X134397619Y-65785714D02*
X134350000Y-65738095D01*
X134302380Y-65642857D01*
X134302380Y-65404761D01*
X134350000Y-65309523D01*
X134397619Y-65261904D01*
X134492857Y-65214285D01*
X134588095Y-65214285D01*
X134730952Y-65261904D01*
X135302380Y-65833333D01*
X135302380Y-65214285D01*
%TO.C,C18*%
X108507142Y-58642857D02*
X108554761Y-58690476D01*
X108602380Y-58833333D01*
X108602380Y-58928571D01*
X108554761Y-59071428D01*
X108459523Y-59166666D01*
X108364285Y-59214285D01*
X108173809Y-59261904D01*
X108030952Y-59261904D01*
X107840476Y-59214285D01*
X107745238Y-59166666D01*
X107650000Y-59071428D01*
X107602380Y-58928571D01*
X107602380Y-58833333D01*
X107650000Y-58690476D01*
X107697619Y-58642857D01*
X108602380Y-57690476D02*
X108602380Y-58261904D01*
X108602380Y-57976190D02*
X107602380Y-57976190D01*
X107745238Y-58071428D01*
X107840476Y-58166666D01*
X107888095Y-58261904D01*
X108030952Y-57119047D02*
X107983333Y-57214285D01*
X107935714Y-57261904D01*
X107840476Y-57309523D01*
X107792857Y-57309523D01*
X107697619Y-57261904D01*
X107650000Y-57214285D01*
X107602380Y-57119047D01*
X107602380Y-56928571D01*
X107650000Y-56833333D01*
X107697619Y-56785714D01*
X107792857Y-56738095D01*
X107840476Y-56738095D01*
X107935714Y-56785714D01*
X107983333Y-56833333D01*
X108030952Y-56928571D01*
X108030952Y-57119047D01*
X108078571Y-57214285D01*
X108126190Y-57261904D01*
X108221428Y-57309523D01*
X108411904Y-57309523D01*
X108507142Y-57261904D01*
X108554761Y-57214285D01*
X108602380Y-57119047D01*
X108602380Y-56928571D01*
X108554761Y-56833333D01*
X108507142Y-56785714D01*
X108411904Y-56738095D01*
X108221428Y-56738095D01*
X108126190Y-56785714D01*
X108078571Y-56833333D01*
X108030952Y-56928571D01*
%TO.C,R4*%
X123833333Y-73632380D02*
X123500000Y-73156190D01*
X123261904Y-73632380D02*
X123261904Y-72632380D01*
X123642857Y-72632380D01*
X123738095Y-72680000D01*
X123785714Y-72727619D01*
X123833333Y-72822857D01*
X123833333Y-72965714D01*
X123785714Y-73060952D01*
X123738095Y-73108571D01*
X123642857Y-73156190D01*
X123261904Y-73156190D01*
X124690476Y-72965714D02*
X124690476Y-73632380D01*
X124452380Y-72584761D02*
X124214285Y-73299047D01*
X124833333Y-73299047D01*
%TO.C,R15*%
X157357142Y-49552380D02*
X157023809Y-49076190D01*
X156785714Y-49552380D02*
X156785714Y-48552380D01*
X157166666Y-48552380D01*
X157261904Y-48600000D01*
X157309523Y-48647619D01*
X157357142Y-48742857D01*
X157357142Y-48885714D01*
X157309523Y-48980952D01*
X157261904Y-49028571D01*
X157166666Y-49076190D01*
X156785714Y-49076190D01*
X158309523Y-49552380D02*
X157738095Y-49552380D01*
X158023809Y-49552380D02*
X158023809Y-48552380D01*
X157928571Y-48695238D01*
X157833333Y-48790476D01*
X157738095Y-48838095D01*
X159214285Y-48552380D02*
X158738095Y-48552380D01*
X158690476Y-49028571D01*
X158738095Y-48980952D01*
X158833333Y-48933333D01*
X159071428Y-48933333D01*
X159166666Y-48980952D01*
X159214285Y-49028571D01*
X159261904Y-49123809D01*
X159261904Y-49361904D01*
X159214285Y-49457142D01*
X159166666Y-49504761D01*
X159071428Y-49552380D01*
X158833333Y-49552380D01*
X158738095Y-49504761D01*
X158690476Y-49457142D01*
%TO.C,R1*%
X146632380Y-102166666D02*
X146156190Y-102500000D01*
X146632380Y-102738095D02*
X145632380Y-102738095D01*
X145632380Y-102357142D01*
X145680000Y-102261904D01*
X145727619Y-102214285D01*
X145822857Y-102166666D01*
X145965714Y-102166666D01*
X146060952Y-102214285D01*
X146108571Y-102261904D01*
X146156190Y-102357142D01*
X146156190Y-102738095D01*
X146632380Y-101214285D02*
X146632380Y-101785714D01*
X146632380Y-101500000D02*
X145632380Y-101500000D01*
X145775238Y-101595238D01*
X145870476Y-101690476D01*
X145918095Y-101785714D01*
%TO.C,U5*%
X130002380Y-89761904D02*
X130811904Y-89761904D01*
X130907142Y-89714285D01*
X130954761Y-89666666D01*
X131002380Y-89571428D01*
X131002380Y-89380952D01*
X130954761Y-89285714D01*
X130907142Y-89238095D01*
X130811904Y-89190476D01*
X130002380Y-89190476D01*
X130002380Y-88238095D02*
X130002380Y-88714285D01*
X130478571Y-88761904D01*
X130430952Y-88714285D01*
X130383333Y-88619047D01*
X130383333Y-88380952D01*
X130430952Y-88285714D01*
X130478571Y-88238095D01*
X130573809Y-88190476D01*
X130811904Y-88190476D01*
X130907142Y-88238095D01*
X130954761Y-88285714D01*
X131002380Y-88380952D01*
X131002380Y-88619047D01*
X130954761Y-88714285D01*
X130907142Y-88761904D01*
X149916666Y-97047619D02*
X149916666Y-96571428D01*
X150202380Y-97142857D02*
X149202380Y-96809523D01*
X150202380Y-96476190D01*
X149202380Y-96285714D02*
X149202380Y-95714285D01*
X150202380Y-96000000D02*
X149202380Y-96000000D01*
X150202380Y-95380952D02*
X149535714Y-95380952D01*
X149630952Y-95380952D02*
X149583333Y-95333333D01*
X149535714Y-95238095D01*
X149535714Y-95095238D01*
X149583333Y-95000000D01*
X149678571Y-94952380D01*
X150202380Y-94952380D01*
X149678571Y-94952380D02*
X149583333Y-94904761D01*
X149535714Y-94809523D01*
X149535714Y-94666666D01*
X149583333Y-94571428D01*
X149678571Y-94523809D01*
X150202380Y-94523809D01*
X150154761Y-93666666D02*
X150202380Y-93761904D01*
X150202380Y-93952380D01*
X150154761Y-94047619D01*
X150059523Y-94095238D01*
X149678571Y-94095238D01*
X149583333Y-94047619D01*
X149535714Y-93952380D01*
X149535714Y-93761904D01*
X149583333Y-93666666D01*
X149678571Y-93619047D01*
X149773809Y-93619047D01*
X149869047Y-94095238D01*
X149535714Y-92761904D02*
X150345238Y-92761904D01*
X150440476Y-92809523D01*
X150488095Y-92857142D01*
X150535714Y-92952380D01*
X150535714Y-93095238D01*
X150488095Y-93190476D01*
X150154761Y-92761904D02*
X150202380Y-92857142D01*
X150202380Y-93047619D01*
X150154761Y-93142857D01*
X150107142Y-93190476D01*
X150011904Y-93238095D01*
X149726190Y-93238095D01*
X149630952Y-93190476D01*
X149583333Y-93142857D01*
X149535714Y-93047619D01*
X149535714Y-92857142D01*
X149583333Y-92761904D01*
X150202380Y-91857142D02*
X149678571Y-91857142D01*
X149583333Y-91904761D01*
X149535714Y-92000000D01*
X149535714Y-92190476D01*
X149583333Y-92285714D01*
X150154761Y-91857142D02*
X150202380Y-91952380D01*
X150202380Y-92190476D01*
X150154761Y-92285714D01*
X150059523Y-92333333D01*
X149964285Y-92333333D01*
X149869047Y-92285714D01*
X149821428Y-92190476D01*
X149821428Y-91952380D01*
X149773809Y-91857142D01*
X150202380Y-90857142D02*
X150202380Y-91428571D01*
X150202380Y-91142857D02*
X149202380Y-91142857D01*
X149345238Y-91238095D01*
X149440476Y-91333333D01*
X149488095Y-91428571D01*
X149297619Y-90476190D02*
X149250000Y-90428571D01*
X149202380Y-90333333D01*
X149202380Y-90095238D01*
X149250000Y-90000000D01*
X149297619Y-89952380D01*
X149392857Y-89904761D01*
X149488095Y-89904761D01*
X149630952Y-89952380D01*
X150202380Y-90523809D01*
X150202380Y-89904761D01*
X149630952Y-89333333D02*
X149583333Y-89428571D01*
X149535714Y-89476190D01*
X149440476Y-89523809D01*
X149392857Y-89523809D01*
X149297619Y-89476190D01*
X149250000Y-89428571D01*
X149202380Y-89333333D01*
X149202380Y-89142857D01*
X149250000Y-89047619D01*
X149297619Y-89000000D01*
X149392857Y-88952380D01*
X149440476Y-88952380D01*
X149535714Y-89000000D01*
X149583333Y-89047619D01*
X149630952Y-89142857D01*
X149630952Y-89333333D01*
X149678571Y-89428571D01*
X149726190Y-89476190D01*
X149821428Y-89523809D01*
X150011904Y-89523809D01*
X150107142Y-89476190D01*
X150154761Y-89428571D01*
X150202380Y-89333333D01*
X150202380Y-89142857D01*
X150154761Y-89047619D01*
X150107142Y-89000000D01*
X150011904Y-88952380D01*
X149821428Y-88952380D01*
X149726190Y-89000000D01*
X149678571Y-89047619D01*
X149630952Y-89142857D01*
%TO.C,C23*%
X138357142Y-102357142D02*
X138309523Y-102404761D01*
X138166666Y-102452380D01*
X138071428Y-102452380D01*
X137928571Y-102404761D01*
X137833333Y-102309523D01*
X137785714Y-102214285D01*
X137738095Y-102023809D01*
X137738095Y-101880952D01*
X137785714Y-101690476D01*
X137833333Y-101595238D01*
X137928571Y-101500000D01*
X138071428Y-101452380D01*
X138166666Y-101452380D01*
X138309523Y-101500000D01*
X138357142Y-101547619D01*
X138738095Y-101547619D02*
X138785714Y-101500000D01*
X138880952Y-101452380D01*
X139119047Y-101452380D01*
X139214285Y-101500000D01*
X139261904Y-101547619D01*
X139309523Y-101642857D01*
X139309523Y-101738095D01*
X139261904Y-101880952D01*
X138690476Y-102452380D01*
X139309523Y-102452380D01*
X139642857Y-101452380D02*
X140261904Y-101452380D01*
X139928571Y-101833333D01*
X140071428Y-101833333D01*
X140166666Y-101880952D01*
X140214285Y-101928571D01*
X140261904Y-102023809D01*
X140261904Y-102261904D01*
X140214285Y-102357142D01*
X140166666Y-102404761D01*
X140071428Y-102452380D01*
X139785714Y-102452380D01*
X139690476Y-102404761D01*
X139642857Y-102357142D01*
%TO.C,R9*%
X151833333Y-69632380D02*
X151500000Y-69156190D01*
X151261904Y-69632380D02*
X151261904Y-68632380D01*
X151642857Y-68632380D01*
X151738095Y-68680000D01*
X151785714Y-68727619D01*
X151833333Y-68822857D01*
X151833333Y-68965714D01*
X151785714Y-69060952D01*
X151738095Y-69108571D01*
X151642857Y-69156190D01*
X151261904Y-69156190D01*
X152309523Y-69632380D02*
X152500000Y-69632380D01*
X152595238Y-69584761D01*
X152642857Y-69537142D01*
X152738095Y-69394285D01*
X152785714Y-69203809D01*
X152785714Y-68822857D01*
X152738095Y-68727619D01*
X152690476Y-68680000D01*
X152595238Y-68632380D01*
X152404761Y-68632380D01*
X152309523Y-68680000D01*
X152261904Y-68727619D01*
X152214285Y-68822857D01*
X152214285Y-69060952D01*
X152261904Y-69156190D01*
X152309523Y-69203809D01*
X152404761Y-69251428D01*
X152595238Y-69251428D01*
X152690476Y-69203809D01*
X152738095Y-69156190D01*
X152785714Y-69060952D01*
%TO.C,C19*%
X143207142Y-66642857D02*
X143254761Y-66690476D01*
X143302380Y-66833333D01*
X143302380Y-66928571D01*
X143254761Y-67071428D01*
X143159523Y-67166666D01*
X143064285Y-67214285D01*
X142873809Y-67261904D01*
X142730952Y-67261904D01*
X142540476Y-67214285D01*
X142445238Y-67166666D01*
X142350000Y-67071428D01*
X142302380Y-66928571D01*
X142302380Y-66833333D01*
X142350000Y-66690476D01*
X142397619Y-66642857D01*
X143302380Y-65690476D02*
X143302380Y-66261904D01*
X143302380Y-65976190D02*
X142302380Y-65976190D01*
X142445238Y-66071428D01*
X142540476Y-66166666D01*
X142588095Y-66261904D01*
X143302380Y-65214285D02*
X143302380Y-65023809D01*
X143254761Y-64928571D01*
X143207142Y-64880952D01*
X143064285Y-64785714D01*
X142873809Y-64738095D01*
X142492857Y-64738095D01*
X142397619Y-64785714D01*
X142350000Y-64833333D01*
X142302380Y-64928571D01*
X142302380Y-65119047D01*
X142350000Y-65214285D01*
X142397619Y-65261904D01*
X142492857Y-65309523D01*
X142730952Y-65309523D01*
X142826190Y-65261904D01*
X142873809Y-65214285D01*
X142921428Y-65119047D01*
X142921428Y-64928571D01*
X142873809Y-64833333D01*
X142826190Y-64785714D01*
X142730952Y-64738095D01*
%TO.C,C17*%
X122357142Y-56507142D02*
X122309523Y-56554761D01*
X122166666Y-56602380D01*
X122071428Y-56602380D01*
X121928571Y-56554761D01*
X121833333Y-56459523D01*
X121785714Y-56364285D01*
X121738095Y-56173809D01*
X121738095Y-56030952D01*
X121785714Y-55840476D01*
X121833333Y-55745238D01*
X121928571Y-55650000D01*
X122071428Y-55602380D01*
X122166666Y-55602380D01*
X122309523Y-55650000D01*
X122357142Y-55697619D01*
X123309523Y-56602380D02*
X122738095Y-56602380D01*
X123023809Y-56602380D02*
X123023809Y-55602380D01*
X122928571Y-55745238D01*
X122833333Y-55840476D01*
X122738095Y-55888095D01*
X123642857Y-55602380D02*
X124309523Y-55602380D01*
X123880952Y-56602380D01*
%TO.C,U6*%
X121228095Y-84472380D02*
X121228095Y-85281904D01*
X121275714Y-85377142D01*
X121323333Y-85424761D01*
X121418571Y-85472380D01*
X121609047Y-85472380D01*
X121704285Y-85424761D01*
X121751904Y-85377142D01*
X121799523Y-85281904D01*
X121799523Y-84472380D01*
X122704285Y-84472380D02*
X122513809Y-84472380D01*
X122418571Y-84520000D01*
X122370952Y-84567619D01*
X122275714Y-84710476D01*
X122228095Y-84900952D01*
X122228095Y-85281904D01*
X122275714Y-85377142D01*
X122323333Y-85424761D01*
X122418571Y-85472380D01*
X122609047Y-85472380D01*
X122704285Y-85424761D01*
X122751904Y-85377142D01*
X122799523Y-85281904D01*
X122799523Y-85043809D01*
X122751904Y-84948571D01*
X122704285Y-84900952D01*
X122609047Y-84853333D01*
X122418571Y-84853333D01*
X122323333Y-84900952D01*
X122275714Y-84948571D01*
X122228095Y-85043809D01*
X115154761Y-90107142D02*
X115107142Y-90154761D01*
X114964285Y-90202380D01*
X114869047Y-90202380D01*
X114726190Y-90154761D01*
X114630952Y-90059523D01*
X114583333Y-89964285D01*
X114535714Y-89773809D01*
X114535714Y-89630952D01*
X114583333Y-89440476D01*
X114630952Y-89345238D01*
X114726190Y-89250000D01*
X114869047Y-89202380D01*
X114964285Y-89202380D01*
X115107142Y-89250000D01*
X115154761Y-89297619D01*
X115583333Y-90202380D02*
X115583333Y-89202380D01*
X115583333Y-89678571D02*
X116154761Y-89678571D01*
X116154761Y-90202380D02*
X116154761Y-89202380D01*
X116535714Y-89202380D02*
X117154761Y-89202380D01*
X116821428Y-89583333D01*
X116964285Y-89583333D01*
X117059523Y-89630952D01*
X117107142Y-89678571D01*
X117154761Y-89773809D01*
X117154761Y-90011904D01*
X117107142Y-90107142D01*
X117059523Y-90154761D01*
X116964285Y-90202380D01*
X116678571Y-90202380D01*
X116583333Y-90154761D01*
X116535714Y-90107142D01*
X118011904Y-89535714D02*
X118011904Y-90202380D01*
X117773809Y-89154761D02*
X117535714Y-89869047D01*
X118154761Y-89869047D01*
X118726190Y-89202380D02*
X118821428Y-89202380D01*
X118916666Y-89250000D01*
X118964285Y-89297619D01*
X119011904Y-89392857D01*
X119059523Y-89583333D01*
X119059523Y-89821428D01*
X119011904Y-90011904D01*
X118964285Y-90107142D01*
X118916666Y-90154761D01*
X118821428Y-90202380D01*
X118726190Y-90202380D01*
X118630952Y-90154761D01*
X118583333Y-90107142D01*
X118535714Y-90011904D01*
X118488095Y-89821428D01*
X118488095Y-89583333D01*
X118535714Y-89392857D01*
X118583333Y-89297619D01*
X118630952Y-89250000D01*
X118726190Y-89202380D01*
X119488095Y-89678571D02*
X119821428Y-89678571D01*
X119964285Y-90202380D02*
X119488095Y-90202380D01*
X119488095Y-89202380D01*
X119964285Y-89202380D01*
%TO.C,R7*%
X137833333Y-69632380D02*
X137500000Y-69156190D01*
X137261904Y-69632380D02*
X137261904Y-68632380D01*
X137642857Y-68632380D01*
X137738095Y-68680000D01*
X137785714Y-68727619D01*
X137833333Y-68822857D01*
X137833333Y-68965714D01*
X137785714Y-69060952D01*
X137738095Y-69108571D01*
X137642857Y-69156190D01*
X137261904Y-69156190D01*
X138166666Y-68632380D02*
X138833333Y-68632380D01*
X138404761Y-69632380D01*
%TO.C,C14*%
X123357142Y-52642857D02*
X123404761Y-52690476D01*
X123452380Y-52833333D01*
X123452380Y-52928571D01*
X123404761Y-53071428D01*
X123309523Y-53166666D01*
X123214285Y-53214285D01*
X123023809Y-53261904D01*
X122880952Y-53261904D01*
X122690476Y-53214285D01*
X122595238Y-53166666D01*
X122500000Y-53071428D01*
X122452380Y-52928571D01*
X122452380Y-52833333D01*
X122500000Y-52690476D01*
X122547619Y-52642857D01*
X123452380Y-51690476D02*
X123452380Y-52261904D01*
X123452380Y-51976190D02*
X122452380Y-51976190D01*
X122595238Y-52071428D01*
X122690476Y-52166666D01*
X122738095Y-52261904D01*
X122785714Y-50833333D02*
X123452380Y-50833333D01*
X122404761Y-51071428D02*
X123119047Y-51309523D01*
X123119047Y-50690476D01*
%TO.C,C28*%
X152357142Y-94207142D02*
X152309523Y-94254761D01*
X152166666Y-94302380D01*
X152071428Y-94302380D01*
X151928571Y-94254761D01*
X151833333Y-94159523D01*
X151785714Y-94064285D01*
X151738095Y-93873809D01*
X151738095Y-93730952D01*
X151785714Y-93540476D01*
X151833333Y-93445238D01*
X151928571Y-93350000D01*
X152071428Y-93302380D01*
X152166666Y-93302380D01*
X152309523Y-93350000D01*
X152357142Y-93397619D01*
X152738095Y-93397619D02*
X152785714Y-93350000D01*
X152880952Y-93302380D01*
X153119047Y-93302380D01*
X153214285Y-93350000D01*
X153261904Y-93397619D01*
X153309523Y-93492857D01*
X153309523Y-93588095D01*
X153261904Y-93730952D01*
X152690476Y-94302380D01*
X153309523Y-94302380D01*
X153880952Y-93730952D02*
X153785714Y-93683333D01*
X153738095Y-93635714D01*
X153690476Y-93540476D01*
X153690476Y-93492857D01*
X153738095Y-93397619D01*
X153785714Y-93350000D01*
X153880952Y-93302380D01*
X154071428Y-93302380D01*
X154166666Y-93350000D01*
X154214285Y-93397619D01*
X154261904Y-93492857D01*
X154261904Y-93540476D01*
X154214285Y-93635714D01*
X154166666Y-93683333D01*
X154071428Y-93730952D01*
X153880952Y-93730952D01*
X153785714Y-93778571D01*
X153738095Y-93826190D01*
X153690476Y-93921428D01*
X153690476Y-94111904D01*
X153738095Y-94207142D01*
X153785714Y-94254761D01*
X153880952Y-94302380D01*
X154071428Y-94302380D01*
X154166666Y-94254761D01*
X154214285Y-94207142D01*
X154261904Y-94111904D01*
X154261904Y-93921428D01*
X154214285Y-93826190D01*
X154166666Y-93778571D01*
X154071428Y-93730952D01*
%TO.C,J3*%
X161902380Y-43083333D02*
X162616666Y-43083333D01*
X162759523Y-43130952D01*
X162854761Y-43226190D01*
X162902380Y-43369047D01*
X162902380Y-43464285D01*
X161902380Y-42702380D02*
X161902380Y-42083333D01*
X162283333Y-42416666D01*
X162283333Y-42273809D01*
X162330952Y-42178571D01*
X162378571Y-42130952D01*
X162473809Y-42083333D01*
X162711904Y-42083333D01*
X162807142Y-42130952D01*
X162854761Y-42178571D01*
X162902380Y-42273809D01*
X162902380Y-42559523D01*
X162854761Y-42654761D01*
X162807142Y-42702380D01*
%TO.C,R8*%
X151833333Y-73632380D02*
X151500000Y-73156190D01*
X151261904Y-73632380D02*
X151261904Y-72632380D01*
X151642857Y-72632380D01*
X151738095Y-72680000D01*
X151785714Y-72727619D01*
X151833333Y-72822857D01*
X151833333Y-72965714D01*
X151785714Y-73060952D01*
X151738095Y-73108571D01*
X151642857Y-73156190D01*
X151261904Y-73156190D01*
X152404761Y-73060952D02*
X152309523Y-73013333D01*
X152261904Y-72965714D01*
X152214285Y-72870476D01*
X152214285Y-72822857D01*
X152261904Y-72727619D01*
X152309523Y-72680000D01*
X152404761Y-72632380D01*
X152595238Y-72632380D01*
X152690476Y-72680000D01*
X152738095Y-72727619D01*
X152785714Y-72822857D01*
X152785714Y-72870476D01*
X152738095Y-72965714D01*
X152690476Y-73013333D01*
X152595238Y-73060952D01*
X152404761Y-73060952D01*
X152309523Y-73108571D01*
X152261904Y-73156190D01*
X152214285Y-73251428D01*
X152214285Y-73441904D01*
X152261904Y-73537142D01*
X152309523Y-73584761D01*
X152404761Y-73632380D01*
X152595238Y-73632380D01*
X152690476Y-73584761D01*
X152738095Y-73537142D01*
X152785714Y-73441904D01*
X152785714Y-73251428D01*
X152738095Y-73156190D01*
X152690476Y-73108571D01*
X152595238Y-73060952D01*
%TO.C,J5*%
X161902380Y-67083333D02*
X162616666Y-67083333D01*
X162759523Y-67130952D01*
X162854761Y-67226190D01*
X162902380Y-67369047D01*
X162902380Y-67464285D01*
X161902380Y-66130952D02*
X161902380Y-66607142D01*
X162378571Y-66654761D01*
X162330952Y-66607142D01*
X162283333Y-66511904D01*
X162283333Y-66273809D01*
X162330952Y-66178571D01*
X162378571Y-66130952D01*
X162473809Y-66083333D01*
X162711904Y-66083333D01*
X162807142Y-66130952D01*
X162854761Y-66178571D01*
X162902380Y-66273809D01*
X162902380Y-66511904D01*
X162854761Y-66607142D01*
X162807142Y-66654761D01*
%TO.C,J4*%
X161902380Y-55083333D02*
X162616666Y-55083333D01*
X162759523Y-55130952D01*
X162854761Y-55226190D01*
X162902380Y-55369047D01*
X162902380Y-55464285D01*
X162235714Y-54178571D02*
X162902380Y-54178571D01*
X161854761Y-54416666D02*
X162569047Y-54654761D01*
X162569047Y-54035714D01*
%TO.C,D9*%
X156666666Y-53404761D02*
X156809523Y-53452380D01*
X157047619Y-53452380D01*
X157142857Y-53404761D01*
X157190476Y-53357142D01*
X157238095Y-53261904D01*
X157238095Y-53166666D01*
X157190476Y-53071428D01*
X157142857Y-53023809D01*
X157047619Y-52976190D01*
X156857142Y-52928571D01*
X156761904Y-52880952D01*
X156714285Y-52833333D01*
X156666666Y-52738095D01*
X156666666Y-52642857D01*
X156714285Y-52547619D01*
X156761904Y-52500000D01*
X156857142Y-52452380D01*
X157095238Y-52452380D01*
X157238095Y-52500000D01*
X157571428Y-52452380D02*
X157809523Y-53452380D01*
X158000000Y-52738095D01*
X158190476Y-53452380D01*
X158428571Y-52452380D01*
X158761904Y-52547619D02*
X158809523Y-52500000D01*
X158904761Y-52452380D01*
X159142857Y-52452380D01*
X159238095Y-52500000D01*
X159285714Y-52547619D01*
X159333333Y-52642857D01*
X159333333Y-52738095D01*
X159285714Y-52880952D01*
X158714285Y-53452380D01*
X159333333Y-53452380D01*
%TO.C,C13*%
X147457142Y-54642857D02*
X147504761Y-54690476D01*
X147552380Y-54833333D01*
X147552380Y-54928571D01*
X147504761Y-55071428D01*
X147409523Y-55166666D01*
X147314285Y-55214285D01*
X147123809Y-55261904D01*
X146980952Y-55261904D01*
X146790476Y-55214285D01*
X146695238Y-55166666D01*
X146600000Y-55071428D01*
X146552380Y-54928571D01*
X146552380Y-54833333D01*
X146600000Y-54690476D01*
X146647619Y-54642857D01*
X147552380Y-53690476D02*
X147552380Y-54261904D01*
X147552380Y-53976190D02*
X146552380Y-53976190D01*
X146695238Y-54071428D01*
X146790476Y-54166666D01*
X146838095Y-54261904D01*
X146552380Y-53357142D02*
X146552380Y-52738095D01*
X146933333Y-53071428D01*
X146933333Y-52928571D01*
X146980952Y-52833333D01*
X147028571Y-52785714D01*
X147123809Y-52738095D01*
X147361904Y-52738095D01*
X147457142Y-52785714D01*
X147504761Y-52833333D01*
X147552380Y-52928571D01*
X147552380Y-53214285D01*
X147504761Y-53309523D01*
X147457142Y-53357142D01*
%TO.C,R21*%
X157632380Y-95642857D02*
X157156190Y-95976190D01*
X157632380Y-96214285D02*
X156632380Y-96214285D01*
X156632380Y-95833333D01*
X156680000Y-95738095D01*
X156727619Y-95690476D01*
X156822857Y-95642857D01*
X156965714Y-95642857D01*
X157060952Y-95690476D01*
X157108571Y-95738095D01*
X157156190Y-95833333D01*
X157156190Y-96214285D01*
X156727619Y-95261904D02*
X156680000Y-95214285D01*
X156632380Y-95119047D01*
X156632380Y-94880952D01*
X156680000Y-94785714D01*
X156727619Y-94738095D01*
X156822857Y-94690476D01*
X156918095Y-94690476D01*
X157060952Y-94738095D01*
X157632380Y-95309523D01*
X157632380Y-94690476D01*
X157632380Y-93738095D02*
X157632380Y-94309523D01*
X157632380Y-94023809D02*
X156632380Y-94023809D01*
X156775238Y-94119047D01*
X156870476Y-94214285D01*
X156918095Y-94309523D01*
%TO.C,R10*%
X152357142Y-102632380D02*
X152023809Y-102156190D01*
X151785714Y-102632380D02*
X151785714Y-101632380D01*
X152166666Y-101632380D01*
X152261904Y-101680000D01*
X152309523Y-101727619D01*
X152357142Y-101822857D01*
X152357142Y-101965714D01*
X152309523Y-102060952D01*
X152261904Y-102108571D01*
X152166666Y-102156190D01*
X151785714Y-102156190D01*
X153309523Y-102632380D02*
X152738095Y-102632380D01*
X153023809Y-102632380D02*
X153023809Y-101632380D01*
X152928571Y-101775238D01*
X152833333Y-101870476D01*
X152738095Y-101918095D01*
X153928571Y-101632380D02*
X154023809Y-101632380D01*
X154119047Y-101680000D01*
X154166666Y-101727619D01*
X154214285Y-101822857D01*
X154261904Y-102013333D01*
X154261904Y-102251428D01*
X154214285Y-102441904D01*
X154166666Y-102537142D01*
X154119047Y-102584761D01*
X154023809Y-102632380D01*
X153928571Y-102632380D01*
X153833333Y-102584761D01*
X153785714Y-102537142D01*
X153738095Y-102441904D01*
X153690476Y-102251428D01*
X153690476Y-102013333D01*
X153738095Y-101822857D01*
X153785714Y-101727619D01*
X153833333Y-101680000D01*
X153928571Y-101632380D01*
%TO.C,R18*%
X114142380Y-92442857D02*
X113666190Y-92776190D01*
X114142380Y-93014285D02*
X113142380Y-93014285D01*
X113142380Y-92633333D01*
X113190000Y-92538095D01*
X113237619Y-92490476D01*
X113332857Y-92442857D01*
X113475714Y-92442857D01*
X113570952Y-92490476D01*
X113618571Y-92538095D01*
X113666190Y-92633333D01*
X113666190Y-93014285D01*
X114142380Y-91490476D02*
X114142380Y-92061904D01*
X114142380Y-91776190D02*
X113142380Y-91776190D01*
X113285238Y-91871428D01*
X113380476Y-91966666D01*
X113428095Y-92061904D01*
X113570952Y-90919047D02*
X113523333Y-91014285D01*
X113475714Y-91061904D01*
X113380476Y-91109523D01*
X113332857Y-91109523D01*
X113237619Y-91061904D01*
X113190000Y-91014285D01*
X113142380Y-90919047D01*
X113142380Y-90728571D01*
X113190000Y-90633333D01*
X113237619Y-90585714D01*
X113332857Y-90538095D01*
X113380476Y-90538095D01*
X113475714Y-90585714D01*
X113523333Y-90633333D01*
X113570952Y-90728571D01*
X113570952Y-90919047D01*
X113618571Y-91014285D01*
X113666190Y-91061904D01*
X113761428Y-91109523D01*
X113951904Y-91109523D01*
X114047142Y-91061904D01*
X114094761Y-91014285D01*
X114142380Y-90919047D01*
X114142380Y-90728571D01*
X114094761Y-90633333D01*
X114047142Y-90585714D01*
X113951904Y-90538095D01*
X113761428Y-90538095D01*
X113666190Y-90585714D01*
X113618571Y-90633333D01*
X113570952Y-90728571D01*
%TO.C,R16*%
X157357142Y-61452380D02*
X157023809Y-60976190D01*
X156785714Y-61452380D02*
X156785714Y-60452380D01*
X157166666Y-60452380D01*
X157261904Y-60500000D01*
X157309523Y-60547619D01*
X157357142Y-60642857D01*
X157357142Y-60785714D01*
X157309523Y-60880952D01*
X157261904Y-60928571D01*
X157166666Y-60976190D01*
X156785714Y-60976190D01*
X158309523Y-61452380D02*
X157738095Y-61452380D01*
X158023809Y-61452380D02*
X158023809Y-60452380D01*
X157928571Y-60595238D01*
X157833333Y-60690476D01*
X157738095Y-60738095D01*
X159166666Y-60452380D02*
X158976190Y-60452380D01*
X158880952Y-60500000D01*
X158833333Y-60547619D01*
X158738095Y-60690476D01*
X158690476Y-60880952D01*
X158690476Y-61261904D01*
X158738095Y-61357142D01*
X158785714Y-61404761D01*
X158880952Y-61452380D01*
X159071428Y-61452380D01*
X159166666Y-61404761D01*
X159214285Y-61357142D01*
X159261904Y-61261904D01*
X159261904Y-61023809D01*
X159214285Y-60928571D01*
X159166666Y-60880952D01*
X159071428Y-60833333D01*
X158880952Y-60833333D01*
X158785714Y-60880952D01*
X158738095Y-60928571D01*
X158690476Y-61023809D01*
%TO.C,RV2*%
X115952380Y-99595238D02*
X115476190Y-99928571D01*
X115952380Y-100166666D02*
X114952380Y-100166666D01*
X114952380Y-99785714D01*
X115000000Y-99690476D01*
X115047619Y-99642857D01*
X115142857Y-99595238D01*
X115285714Y-99595238D01*
X115380952Y-99642857D01*
X115428571Y-99690476D01*
X115476190Y-99785714D01*
X115476190Y-100166666D01*
X114952380Y-99309523D02*
X115952380Y-98976190D01*
X114952380Y-98642857D01*
X115047619Y-98357142D02*
X115000000Y-98309523D01*
X114952380Y-98214285D01*
X114952380Y-97976190D01*
X115000000Y-97880952D01*
X115047619Y-97833333D01*
X115142857Y-97785714D01*
X115238095Y-97785714D01*
X115380952Y-97833333D01*
X115952380Y-98404761D01*
X115952380Y-97785714D01*
%TO.C,U4*%
X117452380Y-105488968D02*
X118261904Y-105488968D01*
X118357142Y-105441349D01*
X118404761Y-105393730D01*
X118452380Y-105298492D01*
X118452380Y-105108016D01*
X118404761Y-105012778D01*
X118357142Y-104965159D01*
X118261904Y-104917540D01*
X117452380Y-104917540D01*
X117785714Y-104012778D02*
X118452380Y-104012778D01*
X117404761Y-104250873D02*
X118119047Y-104488968D01*
X118119047Y-103869921D01*
%TO.C,J7*%
X161902380Y-92308333D02*
X162616666Y-92308333D01*
X162759523Y-92355952D01*
X162854761Y-92451190D01*
X162902380Y-92594047D01*
X162902380Y-92689285D01*
X161902380Y-91927380D02*
X161902380Y-91260714D01*
X162902380Y-91689285D01*
%TO.C,D7*%
X147166666Y-98952380D02*
X147166666Y-97952380D01*
X147547619Y-97952380D01*
X147642857Y-98000000D01*
X147690476Y-98047619D01*
X147738095Y-98142857D01*
X147738095Y-98285714D01*
X147690476Y-98380952D01*
X147642857Y-98428571D01*
X147547619Y-98476190D01*
X147166666Y-98476190D01*
X148071428Y-97952380D02*
X148309523Y-98952380D01*
X148500000Y-98238095D01*
X148690476Y-98952380D01*
X148928571Y-97952380D01*
X149880952Y-98952380D02*
X149547619Y-98476190D01*
X149309523Y-98952380D02*
X149309523Y-97952380D01*
X149690476Y-97952380D01*
X149785714Y-98000000D01*
X149833333Y-98047619D01*
X149880952Y-98142857D01*
X149880952Y-98285714D01*
X149833333Y-98380952D01*
X149785714Y-98428571D01*
X149690476Y-98476190D01*
X149309523Y-98476190D01*
%TO.C,J2*%
X109666666Y-99552380D02*
X109666666Y-100266666D01*
X109619047Y-100409523D01*
X109523809Y-100504761D01*
X109380952Y-100552380D01*
X109285714Y-100552380D01*
X110095238Y-99647619D02*
X110142857Y-99600000D01*
X110238095Y-99552380D01*
X110476190Y-99552380D01*
X110571428Y-99600000D01*
X110619047Y-99647619D01*
X110666666Y-99742857D01*
X110666666Y-99838095D01*
X110619047Y-99980952D01*
X110047619Y-100552380D01*
X110666666Y-100552380D01*
%TO.C,R6*%
X137833333Y-73632380D02*
X137500000Y-73156190D01*
X137261904Y-73632380D02*
X137261904Y-72632380D01*
X137642857Y-72632380D01*
X137738095Y-72680000D01*
X137785714Y-72727619D01*
X137833333Y-72822857D01*
X137833333Y-72965714D01*
X137785714Y-73060952D01*
X137738095Y-73108571D01*
X137642857Y-73156190D01*
X137261904Y-73156190D01*
X138690476Y-72632380D02*
X138500000Y-72632380D01*
X138404761Y-72680000D01*
X138357142Y-72727619D01*
X138261904Y-72870476D01*
X138214285Y-73060952D01*
X138214285Y-73441904D01*
X138261904Y-73537142D01*
X138309523Y-73584761D01*
X138404761Y-73632380D01*
X138595238Y-73632380D01*
X138690476Y-73584761D01*
X138738095Y-73537142D01*
X138785714Y-73441904D01*
X138785714Y-73203809D01*
X138738095Y-73108571D01*
X138690476Y-73060952D01*
X138595238Y-73013333D01*
X138404761Y-73013333D01*
X138309523Y-73060952D01*
X138261904Y-73108571D01*
X138214285Y-73203809D01*
%TO.C,C10*%
X133457142Y-54542857D02*
X133504761Y-54590476D01*
X133552380Y-54733333D01*
X133552380Y-54828571D01*
X133504761Y-54971428D01*
X133409523Y-55066666D01*
X133314285Y-55114285D01*
X133123809Y-55161904D01*
X132980952Y-55161904D01*
X132790476Y-55114285D01*
X132695238Y-55066666D01*
X132600000Y-54971428D01*
X132552380Y-54828571D01*
X132552380Y-54733333D01*
X132600000Y-54590476D01*
X132647619Y-54542857D01*
X133552380Y-53590476D02*
X133552380Y-54161904D01*
X133552380Y-53876190D02*
X132552380Y-53876190D01*
X132695238Y-53971428D01*
X132790476Y-54066666D01*
X132838095Y-54161904D01*
X132552380Y-52971428D02*
X132552380Y-52876190D01*
X132600000Y-52780952D01*
X132647619Y-52733333D01*
X132742857Y-52685714D01*
X132933333Y-52638095D01*
X133171428Y-52638095D01*
X133361904Y-52685714D01*
X133457142Y-52733333D01*
X133504761Y-52780952D01*
X133552380Y-52876190D01*
X133552380Y-52971428D01*
X133504761Y-53066666D01*
X133457142Y-53114285D01*
X133361904Y-53161904D01*
X133171428Y-53209523D01*
X132933333Y-53209523D01*
X132742857Y-53161904D01*
X132647619Y-53114285D01*
X132600000Y-53066666D01*
X132552380Y-52971428D01*
%TO.C,R13*%
X157357142Y-69632380D02*
X157023809Y-69156190D01*
X156785714Y-69632380D02*
X156785714Y-68632380D01*
X157166666Y-68632380D01*
X157261904Y-68680000D01*
X157309523Y-68727619D01*
X157357142Y-68822857D01*
X157357142Y-68965714D01*
X157309523Y-69060952D01*
X157261904Y-69108571D01*
X157166666Y-69156190D01*
X156785714Y-69156190D01*
X158309523Y-69632380D02*
X157738095Y-69632380D01*
X158023809Y-69632380D02*
X158023809Y-68632380D01*
X157928571Y-68775238D01*
X157833333Y-68870476D01*
X157738095Y-68918095D01*
X158642857Y-68632380D02*
X159261904Y-68632380D01*
X158928571Y-69013333D01*
X159071428Y-69013333D01*
X159166666Y-69060952D01*
X159214285Y-69108571D01*
X159261904Y-69203809D01*
X159261904Y-69441904D01*
X159214285Y-69537142D01*
X159166666Y-69584761D01*
X159071428Y-69632380D01*
X158785714Y-69632380D01*
X158690476Y-69584761D01*
X158642857Y-69537142D01*
%TO.C,RV1*%
X112952380Y-101595238D02*
X112476190Y-101928571D01*
X112952380Y-102166666D02*
X111952380Y-102166666D01*
X111952380Y-101785714D01*
X112000000Y-101690476D01*
X112047619Y-101642857D01*
X112142857Y-101595238D01*
X112285714Y-101595238D01*
X112380952Y-101642857D01*
X112428571Y-101690476D01*
X112476190Y-101785714D01*
X112476190Y-102166666D01*
X111952380Y-101309523D02*
X112952380Y-100976190D01*
X111952380Y-100642857D01*
X112952380Y-99785714D02*
X112952380Y-100357142D01*
X112952380Y-100071428D02*
X111952380Y-100071428D01*
X112095238Y-100166666D01*
X112190476Y-100261904D01*
X112238095Y-100357142D01*
%TO.C,C8*%
X137507142Y-52166666D02*
X137554761Y-52214285D01*
X137602380Y-52357142D01*
X137602380Y-52452380D01*
X137554761Y-52595238D01*
X137459523Y-52690476D01*
X137364285Y-52738095D01*
X137173809Y-52785714D01*
X137030952Y-52785714D01*
X136840476Y-52738095D01*
X136745238Y-52690476D01*
X136650000Y-52595238D01*
X136602380Y-52452380D01*
X136602380Y-52357142D01*
X136650000Y-52214285D01*
X136697619Y-52166666D01*
X137030952Y-51595238D02*
X136983333Y-51690476D01*
X136935714Y-51738095D01*
X136840476Y-51785714D01*
X136792857Y-51785714D01*
X136697619Y-51738095D01*
X136650000Y-51690476D01*
X136602380Y-51595238D01*
X136602380Y-51404761D01*
X136650000Y-51309523D01*
X136697619Y-51261904D01*
X136792857Y-51214285D01*
X136840476Y-51214285D01*
X136935714Y-51261904D01*
X136983333Y-51309523D01*
X137030952Y-51404761D01*
X137030952Y-51595238D01*
X137078571Y-51690476D01*
X137126190Y-51738095D01*
X137221428Y-51785714D01*
X137411904Y-51785714D01*
X137507142Y-51738095D01*
X137554761Y-51690476D01*
X137602380Y-51595238D01*
X137602380Y-51404761D01*
X137554761Y-51309523D01*
X137507142Y-51261904D01*
X137411904Y-51214285D01*
X137221428Y-51214285D01*
X137126190Y-51261904D01*
X137078571Y-51309523D01*
X137030952Y-51404761D01*
%TO.C,C15*%
X109507142Y-52642857D02*
X109554761Y-52690476D01*
X109602380Y-52833333D01*
X109602380Y-52928571D01*
X109554761Y-53071428D01*
X109459523Y-53166666D01*
X109364285Y-53214285D01*
X109173809Y-53261904D01*
X109030952Y-53261904D01*
X108840476Y-53214285D01*
X108745238Y-53166666D01*
X108650000Y-53071428D01*
X108602380Y-52928571D01*
X108602380Y-52833333D01*
X108650000Y-52690476D01*
X108697619Y-52642857D01*
X109602380Y-51690476D02*
X109602380Y-52261904D01*
X109602380Y-51976190D02*
X108602380Y-51976190D01*
X108745238Y-52071428D01*
X108840476Y-52166666D01*
X108888095Y-52261904D01*
X108602380Y-50785714D02*
X108602380Y-51261904D01*
X109078571Y-51309523D01*
X109030952Y-51261904D01*
X108983333Y-51166666D01*
X108983333Y-50928571D01*
X109030952Y-50833333D01*
X109078571Y-50785714D01*
X109173809Y-50738095D01*
X109411904Y-50738095D01*
X109507142Y-50785714D01*
X109554761Y-50833333D01*
X109602380Y-50928571D01*
X109602380Y-51166666D01*
X109554761Y-51261904D01*
X109507142Y-51309523D01*
%TO.C,C12*%
X119357142Y-54742857D02*
X119404761Y-54790476D01*
X119452380Y-54933333D01*
X119452380Y-55028571D01*
X119404761Y-55171428D01*
X119309523Y-55266666D01*
X119214285Y-55314285D01*
X119023809Y-55361904D01*
X118880952Y-55361904D01*
X118690476Y-55314285D01*
X118595238Y-55266666D01*
X118500000Y-55171428D01*
X118452380Y-55028571D01*
X118452380Y-54933333D01*
X118500000Y-54790476D01*
X118547619Y-54742857D01*
X119452380Y-53790476D02*
X119452380Y-54361904D01*
X119452380Y-54076190D02*
X118452380Y-54076190D01*
X118595238Y-54171428D01*
X118690476Y-54266666D01*
X118738095Y-54361904D01*
X118547619Y-53409523D02*
X118500000Y-53361904D01*
X118452380Y-53266666D01*
X118452380Y-53028571D01*
X118500000Y-52933333D01*
X118547619Y-52885714D01*
X118642857Y-52838095D01*
X118738095Y-52838095D01*
X118880952Y-52885714D01*
X119452380Y-53457142D01*
X119452380Y-52838095D01*
%TO.C,C30*%
X126607142Y-94142857D02*
X126654761Y-94190476D01*
X126702380Y-94333333D01*
X126702380Y-94428571D01*
X126654761Y-94571428D01*
X126559523Y-94666666D01*
X126464285Y-94714285D01*
X126273809Y-94761904D01*
X126130952Y-94761904D01*
X125940476Y-94714285D01*
X125845238Y-94666666D01*
X125750000Y-94571428D01*
X125702380Y-94428571D01*
X125702380Y-94333333D01*
X125750000Y-94190476D01*
X125797619Y-94142857D01*
X125702380Y-93809523D02*
X125702380Y-93190476D01*
X126083333Y-93523809D01*
X126083333Y-93380952D01*
X126130952Y-93285714D01*
X126178571Y-93238095D01*
X126273809Y-93190476D01*
X126511904Y-93190476D01*
X126607142Y-93238095D01*
X126654761Y-93285714D01*
X126702380Y-93380952D01*
X126702380Y-93666666D01*
X126654761Y-93761904D01*
X126607142Y-93809523D01*
X125702380Y-92571428D02*
X125702380Y-92476190D01*
X125750000Y-92380952D01*
X125797619Y-92333333D01*
X125892857Y-92285714D01*
X126083333Y-92238095D01*
X126321428Y-92238095D01*
X126511904Y-92285714D01*
X126607142Y-92333333D01*
X126654761Y-92380952D01*
X126702380Y-92476190D01*
X126702380Y-92571428D01*
X126654761Y-92666666D01*
X126607142Y-92714285D01*
X126511904Y-92761904D01*
X126321428Y-92809523D01*
X126083333Y-92809523D01*
X125892857Y-92761904D01*
X125797619Y-92714285D01*
X125750000Y-92666666D01*
X125702380Y-92571428D01*
%TO.C,R22*%
X157632380Y-89642857D02*
X157156190Y-89976190D01*
X157632380Y-90214285D02*
X156632380Y-90214285D01*
X156632380Y-89833333D01*
X156680000Y-89738095D01*
X156727619Y-89690476D01*
X156822857Y-89642857D01*
X156965714Y-89642857D01*
X157060952Y-89690476D01*
X157108571Y-89738095D01*
X157156190Y-89833333D01*
X157156190Y-90214285D01*
X156727619Y-89261904D02*
X156680000Y-89214285D01*
X156632380Y-89119047D01*
X156632380Y-88880952D01*
X156680000Y-88785714D01*
X156727619Y-88738095D01*
X156822857Y-88690476D01*
X156918095Y-88690476D01*
X157060952Y-88738095D01*
X157632380Y-89309523D01*
X157632380Y-88690476D01*
X156727619Y-88309523D02*
X156680000Y-88261904D01*
X156632380Y-88166666D01*
X156632380Y-87928571D01*
X156680000Y-87833333D01*
X156727619Y-87785714D01*
X156822857Y-87738095D01*
X156918095Y-87738095D01*
X157060952Y-87785714D01*
X157632380Y-88357142D01*
X157632380Y-87738095D01*
%TO.C,R11*%
X157357142Y-45052380D02*
X157023809Y-44576190D01*
X156785714Y-45052380D02*
X156785714Y-44052380D01*
X157166666Y-44052380D01*
X157261904Y-44100000D01*
X157309523Y-44147619D01*
X157357142Y-44242857D01*
X157357142Y-44385714D01*
X157309523Y-44480952D01*
X157261904Y-44528571D01*
X157166666Y-44576190D01*
X156785714Y-44576190D01*
X158309523Y-45052380D02*
X157738095Y-45052380D01*
X158023809Y-45052380D02*
X158023809Y-44052380D01*
X157928571Y-44195238D01*
X157833333Y-44290476D01*
X157738095Y-44338095D01*
X159261904Y-45052380D02*
X158690476Y-45052380D01*
X158976190Y-45052380D02*
X158976190Y-44052380D01*
X158880952Y-44195238D01*
X158785714Y-44290476D01*
X158690476Y-44338095D01*
%TO.C,J6*%
X161902380Y-79308333D02*
X162616666Y-79308333D01*
X162759523Y-79355952D01*
X162854761Y-79451190D01*
X162902380Y-79594047D01*
X162902380Y-79689285D01*
X161902380Y-78403571D02*
X161902380Y-78594047D01*
X161950000Y-78689285D01*
X161997619Y-78736904D01*
X162140476Y-78832142D01*
X162330952Y-78879761D01*
X162711904Y-78879761D01*
X162807142Y-78832142D01*
X162854761Y-78784523D01*
X162902380Y-78689285D01*
X162902380Y-78498809D01*
X162854761Y-78403571D01*
X162807142Y-78355952D01*
X162711904Y-78308333D01*
X162473809Y-78308333D01*
X162378571Y-78355952D01*
X162330952Y-78403571D01*
X162283333Y-78498809D01*
X162283333Y-78689285D01*
X162330952Y-78784523D01*
X162378571Y-78832142D01*
X162473809Y-78879761D01*
%TO.C,R17*%
X114152380Y-96242857D02*
X113676190Y-96576190D01*
X114152380Y-96814285D02*
X113152380Y-96814285D01*
X113152380Y-96433333D01*
X113200000Y-96338095D01*
X113247619Y-96290476D01*
X113342857Y-96242857D01*
X113485714Y-96242857D01*
X113580952Y-96290476D01*
X113628571Y-96338095D01*
X113676190Y-96433333D01*
X113676190Y-96814285D01*
X114152380Y-95290476D02*
X114152380Y-95861904D01*
X114152380Y-95576190D02*
X113152380Y-95576190D01*
X113295238Y-95671428D01*
X113390476Y-95766666D01*
X113438095Y-95861904D01*
X113152380Y-94957142D02*
X113152380Y-94290476D01*
X114152380Y-94719047D01*
%TO.C,R19*%
X157632380Y-82642857D02*
X157156190Y-82976190D01*
X157632380Y-83214285D02*
X156632380Y-83214285D01*
X156632380Y-82833333D01*
X156680000Y-82738095D01*
X156727619Y-82690476D01*
X156822857Y-82642857D01*
X156965714Y-82642857D01*
X157060952Y-82690476D01*
X157108571Y-82738095D01*
X157156190Y-82833333D01*
X157156190Y-83214285D01*
X157632380Y-81690476D02*
X157632380Y-82261904D01*
X157632380Y-81976190D02*
X156632380Y-81976190D01*
X156775238Y-82071428D01*
X156870476Y-82166666D01*
X156918095Y-82261904D01*
X157632380Y-81214285D02*
X157632380Y-81023809D01*
X157584761Y-80928571D01*
X157537142Y-80880952D01*
X157394285Y-80785714D01*
X157203809Y-80738095D01*
X156822857Y-80738095D01*
X156727619Y-80785714D01*
X156680000Y-80833333D01*
X156632380Y-80928571D01*
X156632380Y-81119047D01*
X156680000Y-81214285D01*
X156727619Y-81261904D01*
X156822857Y-81309523D01*
X157060952Y-81309523D01*
X157156190Y-81261904D01*
X157203809Y-81214285D01*
X157251428Y-81119047D01*
X157251428Y-80928571D01*
X157203809Y-80833333D01*
X157156190Y-80785714D01*
X157060952Y-80738095D01*
%TO.C,U1*%
X147202380Y-59761904D02*
X148011904Y-59761904D01*
X148107142Y-59714285D01*
X148154761Y-59666666D01*
X148202380Y-59571428D01*
X148202380Y-59380952D01*
X148154761Y-59285714D01*
X148107142Y-59238095D01*
X148011904Y-59190476D01*
X147202380Y-59190476D01*
X148202380Y-58190476D02*
X148202380Y-58761904D01*
X148202380Y-58476190D02*
X147202380Y-58476190D01*
X147345238Y-58571428D01*
X147440476Y-58666666D01*
X147488095Y-58761904D01*
X140838095Y-62252380D02*
X141409523Y-62252380D01*
X141123809Y-63252380D02*
X141123809Y-62252380D01*
X141742857Y-63252380D02*
X141742857Y-62252380D01*
X142076190Y-62966666D01*
X142409523Y-62252380D01*
X142409523Y-63252380D01*
X143457142Y-63157142D02*
X143409523Y-63204761D01*
X143266666Y-63252380D01*
X143171428Y-63252380D01*
X143028571Y-63204761D01*
X142933333Y-63109523D01*
X142885714Y-63014285D01*
X142838095Y-62823809D01*
X142838095Y-62680952D01*
X142885714Y-62490476D01*
X142933333Y-62395238D01*
X143028571Y-62300000D01*
X143171428Y-62252380D01*
X143266666Y-62252380D01*
X143409523Y-62300000D01*
X143457142Y-62347619D01*
X143838095Y-62347619D02*
X143885714Y-62300000D01*
X143980952Y-62252380D01*
X144219047Y-62252380D01*
X144314285Y-62300000D01*
X144361904Y-62347619D01*
X144409523Y-62442857D01*
X144409523Y-62538095D01*
X144361904Y-62680952D01*
X143790476Y-63252380D01*
X144409523Y-63252380D01*
X144790476Y-62347619D02*
X144838095Y-62300000D01*
X144933333Y-62252380D01*
X145171428Y-62252380D01*
X145266666Y-62300000D01*
X145314285Y-62347619D01*
X145361904Y-62442857D01*
X145361904Y-62538095D01*
X145314285Y-62680952D01*
X144742857Y-63252380D01*
X145361904Y-63252380D01*
X145980952Y-62252380D02*
X146076190Y-62252380D01*
X146171428Y-62300000D01*
X146219047Y-62347619D01*
X146266666Y-62442857D01*
X146314285Y-62633333D01*
X146314285Y-62871428D01*
X146266666Y-63061904D01*
X146219047Y-63157142D01*
X146171428Y-63204761D01*
X146076190Y-63252380D01*
X145980952Y-63252380D01*
X145885714Y-63204761D01*
X145838095Y-63157142D01*
X145790476Y-63061904D01*
X145742857Y-62871428D01*
X145742857Y-62633333D01*
X145790476Y-62442857D01*
X145838095Y-62347619D01*
X145885714Y-62300000D01*
X145980952Y-62252380D01*
X146885714Y-62680952D02*
X146790476Y-62633333D01*
X146742857Y-62585714D01*
X146695238Y-62490476D01*
X146695238Y-62442857D01*
X146742857Y-62347619D01*
X146790476Y-62300000D01*
X146885714Y-62252380D01*
X147076190Y-62252380D01*
X147171428Y-62300000D01*
X147219047Y-62347619D01*
X147266666Y-62442857D01*
X147266666Y-62490476D01*
X147219047Y-62585714D01*
X147171428Y-62633333D01*
X147076190Y-62680952D01*
X146885714Y-62680952D01*
X146790476Y-62728571D01*
X146742857Y-62776190D01*
X146695238Y-62871428D01*
X146695238Y-63061904D01*
X146742857Y-63157142D01*
X146790476Y-63204761D01*
X146885714Y-63252380D01*
X147076190Y-63252380D01*
X147171428Y-63204761D01*
X147219047Y-63157142D01*
X147266666Y-63061904D01*
X147266666Y-62871428D01*
X147219047Y-62776190D01*
X147171428Y-62728571D01*
X147076190Y-62680952D01*
X140410700Y-56952380D02*
X140410700Y-57190476D01*
X140172604Y-57095238D02*
X140410700Y-57190476D01*
X140648795Y-57095238D01*
X140267842Y-57380952D02*
X140410700Y-57190476D01*
X140553557Y-57380952D01*
%TO.C,R14*%
X155272380Y-49642857D02*
X154796190Y-49976190D01*
X155272380Y-50214285D02*
X154272380Y-50214285D01*
X154272380Y-49833333D01*
X154320000Y-49738095D01*
X154367619Y-49690476D01*
X154462857Y-49642857D01*
X154605714Y-49642857D01*
X154700952Y-49690476D01*
X154748571Y-49738095D01*
X154796190Y-49833333D01*
X154796190Y-50214285D01*
X155272380Y-48690476D02*
X155272380Y-49261904D01*
X155272380Y-48976190D02*
X154272380Y-48976190D01*
X154415238Y-49071428D01*
X154510476Y-49166666D01*
X154558095Y-49261904D01*
X154605714Y-47833333D02*
X155272380Y-47833333D01*
X154224761Y-48071428D02*
X154939047Y-48309523D01*
X154939047Y-47690476D01*
%TO.C,C16*%
X136357142Y-56507142D02*
X136309523Y-56554761D01*
X136166666Y-56602380D01*
X136071428Y-56602380D01*
X135928571Y-56554761D01*
X135833333Y-56459523D01*
X135785714Y-56364285D01*
X135738095Y-56173809D01*
X135738095Y-56030952D01*
X135785714Y-55840476D01*
X135833333Y-55745238D01*
X135928571Y-55650000D01*
X136071428Y-55602380D01*
X136166666Y-55602380D01*
X136309523Y-55650000D01*
X136357142Y-55697619D01*
X137309523Y-56602380D02*
X136738095Y-56602380D01*
X137023809Y-56602380D02*
X137023809Y-55602380D01*
X136928571Y-55745238D01*
X136833333Y-55840476D01*
X136738095Y-55888095D01*
X138166666Y-55602380D02*
X137976190Y-55602380D01*
X137880952Y-55650000D01*
X137833333Y-55697619D01*
X137738095Y-55840476D01*
X137690476Y-56030952D01*
X137690476Y-56411904D01*
X137738095Y-56507142D01*
X137785714Y-56554761D01*
X137880952Y-56602380D01*
X138071428Y-56602380D01*
X138166666Y-56554761D01*
X138214285Y-56507142D01*
X138261904Y-56411904D01*
X138261904Y-56173809D01*
X138214285Y-56078571D01*
X138166666Y-56030952D01*
X138071428Y-55983333D01*
X137880952Y-55983333D01*
X137785714Y-56030952D01*
X137738095Y-56078571D01*
X137690476Y-56173809D01*
%TO.C,D10*%
X156666666Y-65404761D02*
X156809523Y-65452380D01*
X157047619Y-65452380D01*
X157142857Y-65404761D01*
X157190476Y-65357142D01*
X157238095Y-65261904D01*
X157238095Y-65166666D01*
X157190476Y-65071428D01*
X157142857Y-65023809D01*
X157047619Y-64976190D01*
X156857142Y-64928571D01*
X156761904Y-64880952D01*
X156714285Y-64833333D01*
X156666666Y-64738095D01*
X156666666Y-64642857D01*
X156714285Y-64547619D01*
X156761904Y-64500000D01*
X156857142Y-64452380D01*
X157095238Y-64452380D01*
X157238095Y-64500000D01*
X157571428Y-64452380D02*
X157809523Y-65452380D01*
X158000000Y-64738095D01*
X158190476Y-65452380D01*
X158428571Y-64452380D01*
X158714285Y-64452380D02*
X159333333Y-64452380D01*
X159000000Y-64833333D01*
X159142857Y-64833333D01*
X159238095Y-64880952D01*
X159285714Y-64928571D01*
X159333333Y-65023809D01*
X159333333Y-65261904D01*
X159285714Y-65357142D01*
X159238095Y-65404761D01*
X159142857Y-65452380D01*
X158857142Y-65452380D01*
X158761904Y-65404761D01*
X158714285Y-65357142D01*
D12*
%TO.C,R20*%
X158090000Y-76727064D02*
X158090000Y-75272936D01*
X159910000Y-76727064D02*
X159910000Y-75272936D01*
%TO.C,C1*%
X146090000Y-65288748D02*
X146090000Y-66711252D01*
X147910000Y-65288748D02*
X147910000Y-66711252D01*
%TO.C,C20*%
X126090000Y-65288748D02*
X126090000Y-66711252D01*
X127910000Y-65288748D02*
X127910000Y-66711252D01*
%TO.C,C29*%
X128910000Y-94273752D02*
X128910000Y-92851248D01*
X127090000Y-94273752D02*
X127090000Y-92851248D01*
%TO.C,C26*%
X126288748Y-87090000D02*
X127711252Y-87090000D01*
X126288748Y-88910000D02*
X127711252Y-88910000D01*
%TO.C,R5*%
X123272936Y-70090000D02*
X124727064Y-70090000D01*
X123272936Y-71910000D02*
X124727064Y-71910000D01*
%TO.C,C5*%
X131695563Y-52760000D02*
X132760000Y-51695563D01*
X132760000Y-47240000D02*
X131060000Y-47240000D01*
X132760000Y-51695563D02*
X132760000Y-47240000D01*
X128304437Y-52760000D02*
X128940000Y-52760000D01*
X127240000Y-47240000D02*
X128940000Y-47240000D01*
X128315000Y-53625000D02*
X128315000Y-53000000D01*
X128002500Y-53312500D02*
X128627500Y-53312500D01*
X127240000Y-51695563D02*
X127240000Y-47240000D01*
X128304437Y-52760000D02*
X127240000Y-51695563D01*
X131695563Y-52760000D02*
X131060000Y-52760000D01*
%TO.C,C11*%
X110910000Y-63288748D02*
X110910000Y-64711252D01*
X109090000Y-63288748D02*
X109090000Y-64711252D01*
%TO.C,J8*%
X108100000Y-38725000D02*
X108100000Y-39975000D01*
X119200000Y-39775000D02*
X121000000Y-39775000D01*
X108400000Y-39775000D02*
X110200000Y-39775000D01*
X121010000Y-44985000D02*
X121010000Y-39015000D01*
X108400000Y-39025000D02*
X108400000Y-39775000D01*
X109350000Y-38725000D02*
X108100000Y-38725000D01*
X120250000Y-41275000D02*
X120250000Y-44225000D01*
X117700000Y-39025000D02*
X111700000Y-39025000D01*
X111700000Y-39025000D02*
X111700000Y-39775000D01*
X121010000Y-39015000D02*
X108390000Y-39015000D01*
X109150000Y-41275000D02*
X109150000Y-44225000D01*
X108390000Y-39015000D02*
X108390000Y-44985000D01*
X119200000Y-39025000D02*
X119200000Y-39775000D01*
X110200000Y-39775000D02*
X110200000Y-39025000D01*
X108390000Y-44985000D02*
X121010000Y-44985000D01*
X121000000Y-41275000D02*
X120250000Y-41275000D01*
X111700000Y-39775000D02*
X117700000Y-39775000D01*
X108400000Y-41275000D02*
X109150000Y-41275000D01*
X117700000Y-39775000D02*
X117700000Y-39025000D01*
X109150000Y-44225000D02*
X114700000Y-44225000D01*
X120250000Y-44225000D02*
X114700000Y-44225000D01*
X110200000Y-39025000D02*
X108400000Y-39025000D01*
X121000000Y-39775000D02*
X121000000Y-39025000D01*
X121000000Y-39025000D02*
X119200000Y-39025000D01*
%TO.C,C25*%
X153711252Y-88910000D02*
X152288748Y-88910000D01*
X153711252Y-87090000D02*
X152288748Y-87090000D01*
%TO.C,J11*%
X119900000Y-83942500D02*
X119900000Y-86642500D01*
X119900000Y-86642500D02*
X118000000Y-86642500D01*
X119900000Y-77442500D02*
X119900000Y-80042500D01*
X120100000Y-78292500D02*
X120100000Y-77242500D01*
X114000000Y-86642500D02*
X105200000Y-86642500D01*
X105200000Y-86642500D02*
X105200000Y-77442500D01*
X119050000Y-77242500D02*
X120100000Y-77242500D01*
X105200000Y-77442500D02*
X119900000Y-77442500D01*
%TO.C,C24*%
X152288748Y-80610000D02*
X153711252Y-80610000D01*
X152288748Y-78790000D02*
X153711252Y-78790000D01*
%TO.C,C21*%
X112090000Y-65288748D02*
X112090000Y-66711252D01*
X113910000Y-65288748D02*
X113910000Y-66711252D01*
%TO.C,U3*%
X114039860Y-56371100D02*
X113371100Y-56371100D01*
X113371100Y-61628900D02*
X114039860Y-61628900D01*
X118628900Y-61628900D02*
X118628900Y-60960140D01*
X117960140Y-61628900D02*
X118628900Y-61628900D01*
X113371100Y-56371100D02*
X113371100Y-57039860D01*
X118628900Y-57039860D02*
X118628900Y-56371100D01*
X113371100Y-60960140D02*
X113371100Y-61628900D01*
X118628900Y-56371100D02*
X117960140Y-56371100D01*
G36*
X119309899Y-58190499D02*
G01*
X119055899Y-58190499D01*
X119055899Y-57809499D01*
X119309899Y-57809499D01*
X119309899Y-58190499D01*
G37*
D13*
X119309899Y-58190499D02*
X119055899Y-58190499D01*
X119055899Y-57809499D01*
X119309899Y-57809499D01*
X119309899Y-58190499D01*
G36*
X115690501Y-62309899D02*
G01*
X115309501Y-62309899D01*
X115309501Y-62055899D01*
X115690501Y-62055899D01*
X115690501Y-62309899D01*
G37*
X115690501Y-62309899D02*
X115309501Y-62309899D01*
X115309501Y-62055899D01*
X115690501Y-62055899D01*
X115690501Y-62309899D01*
D12*
%TO.C,J1*%
X164855000Y-104595000D02*
X157115000Y-104595000D01*
X157115000Y-99395000D02*
X157115000Y-104595000D01*
X164855000Y-101995000D02*
X164855000Y-104595000D01*
X162255000Y-99395000D02*
X157115000Y-99395000D01*
X164855000Y-99395000D02*
X164855000Y-100725000D01*
X163525000Y-99395000D02*
X164855000Y-99395000D01*
X162255000Y-101995000D02*
X164855000Y-101995000D01*
X162255000Y-99395000D02*
X162255000Y-101995000D01*
%TO.C,C22*%
X138288748Y-104090000D02*
X139711252Y-104090000D01*
X138288748Y-105910000D02*
X139711252Y-105910000D01*
%TO.C,C3*%
X119910000Y-65288748D02*
X119910000Y-66711252D01*
X118090000Y-65288748D02*
X118090000Y-66711252D01*
%TO.C,Y1*%
X155700000Y-81650000D02*
X150300000Y-81650000D01*
X155700000Y-86150000D02*
X155700000Y-81650000D01*
%TO.C,U2*%
X127371100Y-60960140D02*
X127371100Y-61628900D01*
X127371100Y-56371100D02*
X127371100Y-57039860D01*
X132628900Y-61628900D02*
X132628900Y-60960140D01*
X132628900Y-57039860D02*
X132628900Y-56371100D01*
X128039860Y-56371100D02*
X127371100Y-56371100D01*
X132628900Y-56371100D02*
X131960140Y-56371100D01*
X127371100Y-61628900D02*
X128039860Y-61628900D01*
X131960140Y-61628900D02*
X132628900Y-61628900D01*
G36*
X129690501Y-62309899D02*
G01*
X129309501Y-62309899D01*
X129309501Y-62055899D01*
X129690501Y-62055899D01*
X129690501Y-62309899D01*
G37*
D13*
X129690501Y-62309899D02*
X129309501Y-62309899D01*
X129309501Y-62055899D01*
X129690501Y-62055899D01*
X129690501Y-62309899D01*
G36*
X133309899Y-58190499D02*
G01*
X133055899Y-58190499D01*
X133055899Y-57809499D01*
X133309899Y-57809499D01*
X133309899Y-58190499D01*
G37*
X133309899Y-58190499D02*
X133055899Y-58190499D01*
X133055899Y-57809499D01*
X133309899Y-57809499D01*
X133309899Y-58190499D01*
D12*
%TO.C,D6*%
X144400000Y-72135000D02*
X148460000Y-72135000D01*
X148460000Y-72135000D02*
X148460000Y-69865000D01*
X148460000Y-69865000D02*
X144400000Y-69865000D01*
%TO.C,FB2*%
X115090000Y-103272936D02*
X115090000Y-104727064D01*
X116910000Y-103272936D02*
X116910000Y-104727064D01*
%TO.C,D8*%
X159600000Y-41352500D02*
X155540000Y-41352500D01*
X155540000Y-43622500D02*
X159600000Y-43622500D01*
X155540000Y-41352500D02*
X155540000Y-43622500D01*
%TO.C,C27*%
X126288748Y-83090000D02*
X127711252Y-83090000D01*
X126288748Y-84910000D02*
X127711252Y-84910000D01*
%TO.C,R12*%
X157272936Y-59910000D02*
X158727064Y-59910000D01*
X157272936Y-58090000D02*
X158727064Y-58090000D01*
%TO.C,C6*%
X113240000Y-47240000D02*
X114940000Y-47240000D01*
X117695563Y-52760000D02*
X118760000Y-51695563D01*
X114304437Y-52760000D02*
X113240000Y-51695563D01*
X118760000Y-47240000D02*
X117060000Y-47240000D01*
X117695563Y-52760000D02*
X117060000Y-52760000D01*
X114002500Y-53312500D02*
X114627500Y-53312500D01*
X114315000Y-53625000D02*
X114315000Y-53000000D01*
X114304437Y-52760000D02*
X114940000Y-52760000D01*
X113240000Y-51695563D02*
X113240000Y-47240000D01*
X118760000Y-51695563D02*
X118760000Y-47240000D01*
%TO.C,C7*%
X137711252Y-62910000D02*
X136288748Y-62910000D01*
X137711252Y-61090000D02*
X136288748Y-61090000D01*
%TO.C,R2*%
X144910000Y-102727064D02*
X144910000Y-101272936D01*
X143090000Y-102727064D02*
X143090000Y-101272936D01*
%TO.C,C9*%
X123711252Y-61090000D02*
X122288748Y-61090000D01*
X123711252Y-62910000D02*
X122288748Y-62910000D01*
%TO.C,R3*%
X153727064Y-96910000D02*
X152272936Y-96910000D01*
X153727064Y-95090000D02*
X152272936Y-95090000D01*
%TO.C,C4*%
X142304437Y-52760000D02*
X141240000Y-51695563D01*
X146760000Y-51695563D02*
X146760000Y-47240000D01*
X142304437Y-52760000D02*
X142940000Y-52760000D01*
X141240000Y-51695563D02*
X141240000Y-47240000D01*
X142002500Y-53312500D02*
X142627500Y-53312500D01*
X146760000Y-47240000D02*
X145060000Y-47240000D01*
X142315000Y-53625000D02*
X142315000Y-53000000D01*
X141240000Y-47240000D02*
X142940000Y-47240000D01*
X145695563Y-52760000D02*
X146760000Y-51695563D01*
X145695563Y-52760000D02*
X145060000Y-52760000D01*
%TO.C,C2*%
X132090000Y-65288748D02*
X132090000Y-66711252D01*
X133910000Y-65288748D02*
X133910000Y-66711252D01*
%TO.C,C18*%
X109090000Y-58711252D02*
X109090000Y-57288748D01*
X110910000Y-58711252D02*
X110910000Y-57288748D01*
%TO.C,R4*%
X123272936Y-74090000D02*
X124727064Y-74090000D01*
X123272936Y-75910000D02*
X124727064Y-75910000D01*
%TO.C,J9*%
X136300000Y-39025000D02*
X134500000Y-39025000D01*
X124450000Y-44225000D02*
X130000000Y-44225000D01*
X133000000Y-39025000D02*
X127000000Y-39025000D01*
X123690000Y-44985000D02*
X136310000Y-44985000D01*
X125500000Y-39775000D02*
X125500000Y-39025000D01*
X136300000Y-39775000D02*
X136300000Y-39025000D01*
X124650000Y-38725000D02*
X123400000Y-38725000D01*
X127000000Y-39025000D02*
X127000000Y-39775000D01*
X135550000Y-44225000D02*
X130000000Y-44225000D01*
X136310000Y-44985000D02*
X136310000Y-39015000D01*
X123400000Y-38725000D02*
X123400000Y-39975000D01*
X134500000Y-39775000D02*
X136300000Y-39775000D01*
X133000000Y-39775000D02*
X133000000Y-39025000D01*
X134500000Y-39025000D02*
X134500000Y-39775000D01*
X123700000Y-39025000D02*
X123700000Y-39775000D01*
X135550000Y-41275000D02*
X135550000Y-44225000D01*
X123700000Y-41275000D02*
X124450000Y-41275000D01*
X124450000Y-41275000D02*
X124450000Y-44225000D01*
X127000000Y-39775000D02*
X133000000Y-39775000D01*
X125500000Y-39025000D02*
X123700000Y-39025000D01*
X136300000Y-41275000D02*
X135550000Y-41275000D01*
X123690000Y-39015000D02*
X123690000Y-44985000D01*
X123700000Y-39775000D02*
X125500000Y-39775000D01*
X136310000Y-39015000D02*
X123690000Y-39015000D01*
%TO.C,R15*%
X158727064Y-51910000D02*
X157272936Y-51910000D01*
X158727064Y-50090000D02*
X157272936Y-50090000D01*
%TO.C,R1*%
X148910000Y-102727064D02*
X148910000Y-101272936D01*
X147090000Y-102727064D02*
X147090000Y-101272936D01*
D11*
%TO.C,U5*%
X147175000Y-96175000D02*
X147175000Y-95500000D01*
X132825000Y-96175000D02*
X132825000Y-95500000D01*
X147175000Y-96175000D02*
X146500000Y-96175000D01*
X132825000Y-81825000D02*
X132825000Y-82500000D01*
X132825000Y-81825000D02*
X133500000Y-81825000D01*
X133400000Y-96175000D02*
X133400000Y-97450000D01*
X147175000Y-81825000D02*
X146500000Y-81825000D01*
X147175000Y-81825000D02*
X147175000Y-82500000D01*
X132825000Y-96175000D02*
X133400000Y-96175000D01*
D12*
%TO.C,C23*%
X138288748Y-99090000D02*
X139711252Y-99090000D01*
X138288748Y-100910000D02*
X139711252Y-100910000D01*
%TO.C,R9*%
X151272936Y-71910000D02*
X152727064Y-71910000D01*
X151272936Y-70090000D02*
X152727064Y-70090000D01*
%TO.C,C19*%
X141910000Y-65288748D02*
X141910000Y-66711252D01*
X140090000Y-65288748D02*
X140090000Y-66711252D01*
%TO.C,C17*%
X122288748Y-58910000D02*
X123711252Y-58910000D01*
X122288748Y-57090000D02*
X123711252Y-57090000D01*
D11*
%TO.C,U6*%
X120325000Y-90675000D02*
X120625000Y-90675000D01*
X123675000Y-90675000D02*
X123375000Y-90675000D01*
X123675000Y-87325000D02*
X123450000Y-87325000D01*
X120325000Y-87325000D02*
X120325000Y-90675000D01*
X123675000Y-87325000D02*
X123675000Y-90675000D01*
X120325000Y-87325000D02*
X120625000Y-87325000D01*
X123450000Y-87325000D02*
X123450000Y-86100000D01*
D12*
%TO.C,R7*%
X137272936Y-71910000D02*
X138727064Y-71910000D01*
X137272936Y-70090000D02*
X138727064Y-70090000D01*
%TO.C,C14*%
X124090000Y-52711252D02*
X124090000Y-51288748D01*
X125910000Y-52711252D02*
X125910000Y-51288748D01*
%TO.C,C28*%
X153711252Y-91090000D02*
X152288748Y-91090000D01*
X153711252Y-92910000D02*
X152288748Y-92910000D01*
%TO.C,J3*%
X165800000Y-46550000D02*
X165800000Y-45800000D01*
X163550000Y-46550000D02*
X164300000Y-46550000D01*
X163550000Y-40750000D02*
X164300000Y-40750000D01*
X163550000Y-38950000D02*
X163550000Y-40750000D01*
X168750000Y-39700000D02*
X168750000Y-42750000D01*
X164300000Y-38950000D02*
X163550000Y-38950000D01*
X164300000Y-44750000D02*
X163550000Y-44750000D01*
X169510000Y-38940000D02*
X163540000Y-38940000D01*
X164300000Y-46550000D02*
X164300000Y-44750000D01*
X163550000Y-43250000D02*
X164300000Y-43250000D01*
X163540000Y-46560000D02*
X169510000Y-46560000D01*
X168750000Y-45800000D02*
X168750000Y-42750000D01*
X164300000Y-43250000D02*
X164300000Y-42250000D01*
X164300000Y-40750000D02*
X164300000Y-38950000D01*
X169510000Y-46560000D02*
X169510000Y-38940000D01*
X165800000Y-39700000D02*
X168750000Y-39700000D01*
X163250000Y-45600000D02*
X163250000Y-46850000D01*
X165800000Y-45800000D02*
X168750000Y-45800000D01*
X164300000Y-42250000D02*
X163550000Y-42250000D01*
X165800000Y-38950000D02*
X165800000Y-39700000D01*
X163550000Y-44750000D02*
X163550000Y-46550000D01*
X163250000Y-46850000D02*
X164500000Y-46850000D01*
X163550000Y-42250000D02*
X163550000Y-43250000D01*
X163540000Y-38940000D02*
X163540000Y-46560000D01*
%TO.C,R8*%
X151272936Y-75910000D02*
X152727064Y-75910000D01*
X151272936Y-74090000D02*
X152727064Y-74090000D01*
%TO.C,J5*%
X163550000Y-68750000D02*
X163550000Y-70550000D01*
X163540000Y-70560000D02*
X169510000Y-70560000D01*
X163550000Y-66250000D02*
X163550000Y-67250000D01*
X163540000Y-62940000D02*
X163540000Y-70560000D01*
X165800000Y-63700000D02*
X168750000Y-63700000D01*
X165800000Y-62950000D02*
X165800000Y-63700000D01*
X164300000Y-67250000D02*
X164300000Y-66250000D01*
X163550000Y-67250000D02*
X164300000Y-67250000D01*
X168750000Y-69800000D02*
X168750000Y-66750000D01*
X163550000Y-64750000D02*
X164300000Y-64750000D01*
X164300000Y-70550000D02*
X164300000Y-68750000D01*
X165800000Y-70550000D02*
X165800000Y-69800000D01*
X164300000Y-66250000D02*
X163550000Y-66250000D01*
X164300000Y-62950000D02*
X163550000Y-62950000D01*
X163550000Y-62950000D02*
X163550000Y-64750000D01*
X165800000Y-69800000D02*
X168750000Y-69800000D01*
X164300000Y-64750000D02*
X164300000Y-62950000D01*
X169510000Y-62940000D02*
X163540000Y-62940000D01*
X164300000Y-68750000D02*
X163550000Y-68750000D01*
X163250000Y-70850000D02*
X164500000Y-70850000D01*
X163250000Y-69600000D02*
X163250000Y-70850000D01*
X163550000Y-70550000D02*
X164300000Y-70550000D01*
X168750000Y-63700000D02*
X168750000Y-66750000D01*
X169510000Y-70560000D02*
X169510000Y-62940000D01*
%TO.C,J4*%
X165800000Y-50950000D02*
X165800000Y-51700000D01*
X165800000Y-51700000D02*
X168750000Y-51700000D01*
X163540000Y-58560000D02*
X169510000Y-58560000D01*
X164300000Y-55250000D02*
X164300000Y-54250000D01*
X163250000Y-57600000D02*
X163250000Y-58850000D01*
X163550000Y-58550000D02*
X164300000Y-58550000D01*
X163550000Y-56750000D02*
X163550000Y-58550000D01*
X164300000Y-56750000D02*
X163550000Y-56750000D01*
X163250000Y-58850000D02*
X164500000Y-58850000D01*
X168750000Y-57800000D02*
X168750000Y-54750000D01*
X165800000Y-58550000D02*
X165800000Y-57800000D01*
X169510000Y-50940000D02*
X163540000Y-50940000D01*
X165800000Y-57800000D02*
X168750000Y-57800000D01*
X163540000Y-50940000D02*
X163540000Y-58560000D01*
X164300000Y-50950000D02*
X163550000Y-50950000D01*
X168750000Y-51700000D02*
X168750000Y-54750000D01*
X164300000Y-52750000D02*
X164300000Y-50950000D01*
X163550000Y-54250000D02*
X163550000Y-55250000D01*
X163550000Y-55250000D02*
X164300000Y-55250000D01*
X164300000Y-54250000D02*
X163550000Y-54250000D01*
X163550000Y-52750000D02*
X164300000Y-52750000D01*
X169510000Y-58560000D02*
X169510000Y-50940000D01*
X164300000Y-58550000D02*
X164300000Y-56750000D01*
X163550000Y-50950000D02*
X163550000Y-52750000D01*
%TO.C,D9*%
X155540000Y-56135000D02*
X159600000Y-56135000D01*
X155540000Y-53865000D02*
X155540000Y-56135000D01*
X159600000Y-53865000D02*
X155540000Y-53865000D01*
%TO.C,C13*%
X149910000Y-52711252D02*
X149910000Y-51288748D01*
X148090000Y-52711252D02*
X148090000Y-51288748D01*
%TO.C,D3*%
X130400000Y-76135000D02*
X134460000Y-76135000D01*
X134460000Y-76135000D02*
X134460000Y-73865000D01*
X134460000Y-73865000D02*
X130400000Y-73865000D01*
%TO.C,R21*%
X158090000Y-95727064D02*
X158090000Y-94272936D01*
X159910000Y-95727064D02*
X159910000Y-94272936D01*
%TO.C,D4*%
X134460000Y-69865000D02*
X130400000Y-69865000D01*
X134460000Y-72135000D02*
X134460000Y-69865000D01*
X130400000Y-72135000D02*
X134460000Y-72135000D01*
%TO.C,R10*%
X152272936Y-103090000D02*
X153727064Y-103090000D01*
X152272936Y-104910000D02*
X153727064Y-104910000D01*
%TO.C,R18*%
X116272936Y-93290000D02*
X117727064Y-93290000D01*
X116272936Y-91470000D02*
X117727064Y-91470000D01*
%TO.C,R16*%
X158727064Y-63910000D02*
X157272936Y-63910000D01*
X158727064Y-62090000D02*
X157272936Y-62090000D01*
%TO.C,D1*%
X116400000Y-76135000D02*
X120460000Y-76135000D01*
X120460000Y-76135000D02*
X120460000Y-73865000D01*
X120460000Y-73865000D02*
X116400000Y-73865000D01*
%TO.C,RV2*%
X116487500Y-98745276D02*
X116487500Y-99254724D01*
X117532500Y-98745276D02*
X117532500Y-99254724D01*
%TO.C,U4*%
X129950000Y-96800000D02*
X129950000Y-98610000D01*
X129950000Y-98610000D02*
X131050000Y-98610000D01*
X128450000Y-96800000D02*
X129950000Y-96800000D01*
X129950000Y-107200000D02*
X129950000Y-105390000D01*
X128450000Y-107200000D02*
X129950000Y-107200000D01*
X129950000Y-105390000D02*
X135075000Y-105390000D01*
%TO.C,J7*%
X164300000Y-86925000D02*
X163550000Y-86925000D01*
X165800000Y-87675000D02*
X168750000Y-87675000D01*
X165800000Y-96275000D02*
X168750000Y-96275000D01*
X163250000Y-96075000D02*
X163250000Y-97325000D01*
X163550000Y-90225000D02*
X163550000Y-93725000D01*
X164300000Y-93725000D02*
X164300000Y-90225000D01*
X163550000Y-93725000D02*
X164300000Y-93725000D01*
X164300000Y-97025000D02*
X164300000Y-95225000D01*
X169510000Y-86915000D02*
X163540000Y-86915000D01*
X163550000Y-86925000D02*
X163550000Y-88725000D01*
X163550000Y-95225000D02*
X163550000Y-97025000D01*
X165800000Y-97025000D02*
X165800000Y-96275000D01*
X163540000Y-97035000D02*
X169510000Y-97035000D01*
X163550000Y-97025000D02*
X164300000Y-97025000D01*
X163540000Y-86915000D02*
X163540000Y-97035000D01*
X164300000Y-88725000D02*
X164300000Y-86925000D01*
X168750000Y-87675000D02*
X168750000Y-91975000D01*
X164300000Y-90225000D02*
X163550000Y-90225000D01*
X169510000Y-97035000D02*
X169510000Y-86915000D01*
X168750000Y-96275000D02*
X168750000Y-91975000D01*
X165800000Y-86925000D02*
X165800000Y-87675000D01*
X163550000Y-88725000D02*
X164300000Y-88725000D01*
X164300000Y-95225000D02*
X163550000Y-95225000D01*
X163250000Y-97325000D02*
X164500000Y-97325000D01*
%TO.C,D7*%
X150540000Y-98865000D02*
X150540000Y-101135000D01*
X150540000Y-101135000D02*
X154600000Y-101135000D01*
X154600000Y-98865000D02*
X150540000Y-98865000D01*
%TO.C,D5*%
X148460000Y-76135000D02*
X148460000Y-73865000D01*
X144400000Y-76135000D02*
X148460000Y-76135000D01*
X148460000Y-73865000D02*
X144400000Y-73865000D01*
%TO.C,J2*%
X105840000Y-90140000D02*
X107450000Y-90140000D01*
X109950000Y-97860000D02*
X111660000Y-97860000D01*
X109950000Y-90140000D02*
X111660000Y-90140000D01*
X111660000Y-90140000D02*
X111660000Y-92200000D01*
X105840000Y-90140000D02*
X105840000Y-97860000D01*
X105840000Y-97860000D02*
X107450000Y-97860000D01*
X111660000Y-97860000D02*
X111660000Y-95800000D01*
X111660000Y-92200000D02*
X112250000Y-92200000D01*
%TO.C,R6*%
X137272936Y-75910000D02*
X138727064Y-75910000D01*
X137272936Y-74090000D02*
X138727064Y-74090000D01*
%TO.C,C10*%
X134090000Y-52711252D02*
X134090000Y-51288748D01*
X135910000Y-52711252D02*
X135910000Y-51288748D01*
%TO.C,R13*%
X157272936Y-70090000D02*
X158727064Y-70090000D01*
X157272936Y-71910000D02*
X158727064Y-71910000D01*
%TO.C,RV1*%
X114522500Y-98745276D02*
X114522500Y-99254724D01*
X113477500Y-98745276D02*
X113477500Y-99254724D01*
%TO.C,C8*%
X138090000Y-52711252D02*
X138090000Y-51288748D01*
X139910000Y-52711252D02*
X139910000Y-51288748D01*
%TO.C,C15*%
X110090000Y-52711252D02*
X110090000Y-51288748D01*
X111910000Y-52711252D02*
X111910000Y-51288748D01*
%TO.C,D2*%
X120460000Y-72135000D02*
X120460000Y-69865000D01*
X116400000Y-72135000D02*
X120460000Y-72135000D01*
X120460000Y-69865000D02*
X116400000Y-69865000D01*
%TO.C,J10*%
X140150000Y-41275000D02*
X140150000Y-44225000D01*
X139100000Y-38725000D02*
X139100000Y-39975000D01*
X139400000Y-39025000D02*
X139400000Y-39775000D01*
X150200000Y-39775000D02*
X152000000Y-39775000D01*
X139400000Y-39775000D02*
X141200000Y-39775000D01*
X151250000Y-41275000D02*
X151250000Y-44225000D01*
X140350000Y-38725000D02*
X139100000Y-38725000D01*
X140150000Y-44225000D02*
X145700000Y-44225000D01*
X142700000Y-39775000D02*
X148700000Y-39775000D01*
X152000000Y-41275000D02*
X151250000Y-41275000D01*
X152000000Y-39025000D02*
X150200000Y-39025000D01*
X150200000Y-39025000D02*
X150200000Y-39775000D01*
X152010000Y-39015000D02*
X139390000Y-39015000D01*
X142700000Y-39025000D02*
X142700000Y-39775000D01*
X141200000Y-39775000D02*
X141200000Y-39025000D01*
X148700000Y-39775000D02*
X148700000Y-39025000D01*
X148700000Y-39025000D02*
X142700000Y-39025000D01*
X141200000Y-39025000D02*
X139400000Y-39025000D01*
X139390000Y-39015000D02*
X139390000Y-44985000D01*
X151250000Y-44225000D02*
X145700000Y-44225000D01*
X139390000Y-44985000D02*
X152010000Y-44985000D01*
X152000000Y-39775000D02*
X152000000Y-39025000D01*
X139400000Y-41275000D02*
X140150000Y-41275000D01*
X152010000Y-44985000D02*
X152010000Y-39015000D01*
%TO.C,C12*%
X121910000Y-52711252D02*
X121910000Y-51288748D01*
X120090000Y-52711252D02*
X120090000Y-51288748D01*
%TO.C,C30*%
X123711252Y-93090000D02*
X122288748Y-93090000D01*
X123711252Y-94910000D02*
X122288748Y-94910000D01*
%TO.C,R22*%
X159910000Y-89727064D02*
X159910000Y-88272936D01*
X158090000Y-89727064D02*
X158090000Y-88272936D01*
%TO.C,R11*%
X157272936Y-45577500D02*
X158727064Y-45577500D01*
X157272936Y-47397500D02*
X158727064Y-47397500D01*
%TO.C,J6*%
X163540000Y-73915000D02*
X163540000Y-84035000D01*
X163550000Y-80725000D02*
X164300000Y-80725000D01*
X168750000Y-83275000D02*
X168750000Y-78975000D01*
X163540000Y-84035000D02*
X169510000Y-84035000D01*
X165800000Y-83275000D02*
X168750000Y-83275000D01*
X165800000Y-73925000D02*
X165800000Y-74675000D01*
X164300000Y-75725000D02*
X164300000Y-73925000D01*
X163550000Y-82225000D02*
X163550000Y-84025000D01*
X165800000Y-74675000D02*
X168750000Y-74675000D01*
X164300000Y-77225000D02*
X163550000Y-77225000D01*
X163250000Y-83075000D02*
X163250000Y-84325000D01*
X164300000Y-82225000D02*
X163550000Y-82225000D01*
X169510000Y-84035000D02*
X169510000Y-73915000D01*
X163550000Y-84025000D02*
X164300000Y-84025000D01*
X163550000Y-75725000D02*
X164300000Y-75725000D01*
X168750000Y-74675000D02*
X168750000Y-78975000D01*
X163550000Y-73925000D02*
X163550000Y-75725000D01*
X163550000Y-77225000D02*
X163550000Y-80725000D01*
X164300000Y-73925000D02*
X163550000Y-73925000D01*
X164300000Y-80725000D02*
X164300000Y-77225000D01*
X164300000Y-84025000D02*
X164300000Y-82225000D01*
X169510000Y-73915000D02*
X163540000Y-73915000D01*
X163250000Y-84325000D02*
X164500000Y-84325000D01*
X165800000Y-84025000D02*
X165800000Y-83275000D01*
%TO.C,R17*%
X116282936Y-94070000D02*
X117737064Y-94070000D01*
X116282936Y-95890000D02*
X117737064Y-95890000D01*
%TO.C,R19*%
X158090000Y-82727064D02*
X158090000Y-81272936D01*
X159910000Y-82727064D02*
X159910000Y-81272936D01*
%TO.C,U1*%
X146628900Y-57039860D02*
X146628900Y-56371100D01*
X141371100Y-61628900D02*
X142039860Y-61628900D01*
X145960140Y-61628900D02*
X146628900Y-61628900D01*
X142039860Y-56371100D02*
X141371100Y-56371100D01*
X146628900Y-61628900D02*
X146628900Y-60960140D01*
X141371100Y-60960140D02*
X141371100Y-61628900D01*
X146628900Y-56371100D02*
X145960140Y-56371100D01*
X141371100Y-56371100D02*
X141371100Y-57039860D01*
G36*
X143690501Y-62309899D02*
G01*
X143309501Y-62309899D01*
X143309501Y-62055899D01*
X143690501Y-62055899D01*
X143690501Y-62309899D01*
G37*
D13*
X143690501Y-62309899D02*
X143309501Y-62309899D01*
X143309501Y-62055899D01*
X143690501Y-62055899D01*
X143690501Y-62309899D01*
G36*
X147309899Y-58190499D02*
G01*
X147055899Y-58190499D01*
X147055899Y-57809499D01*
X147309899Y-57809499D01*
X147309899Y-58190499D01*
G37*
X147309899Y-58190499D02*
X147055899Y-58190499D01*
X147055899Y-57809499D01*
X147309899Y-57809499D01*
X147309899Y-58190499D01*
D12*
%TO.C,R14*%
X153910000Y-48272936D02*
X153910000Y-49727064D01*
X152090000Y-48272936D02*
X152090000Y-49727064D01*
%TO.C,C16*%
X136288748Y-58910000D02*
X137711252Y-58910000D01*
X136288748Y-57090000D02*
X137711252Y-57090000D01*
%TO.C,D10*%
X155540000Y-68135000D02*
X159600000Y-68135000D01*
X159600000Y-65865000D02*
X155540000Y-65865000D01*
X155540000Y-65865000D02*
X155540000Y-68135000D01*
%TD*%
%LPC*%
D14*
%TO.C,R20*%
X159000000Y-77550000D03*
X159000000Y-74450000D03*
%TD*%
D15*
%TO.C,C1*%
X147000000Y-64437500D03*
X147000000Y-67562500D03*
%TD*%
%TO.C,C20*%
X127000000Y-64437500D03*
X127000000Y-67562500D03*
%TD*%
D16*
%TO.C,C29*%
X128000000Y-95125000D03*
X128000000Y-92000000D03*
%TD*%
D17*
%TO.C,C26*%
X125437500Y-88000000D03*
X128562500Y-88000000D03*
%TD*%
D18*
%TO.C,R5*%
X122450000Y-71000000D03*
X125550000Y-71000000D03*
%TD*%
D19*
%TO.C,C5*%
X130000000Y-52200000D03*
X130000000Y-47800000D03*
%TD*%
D15*
%TO.C,C11*%
X110000000Y-62437500D03*
X110000000Y-65562500D03*
%TD*%
D20*
%TO.C,J8*%
X110950000Y-41475000D03*
D21*
X113450000Y-41475000D03*
X115950000Y-41475000D03*
X118450000Y-41475000D03*
%TD*%
D22*
%TO.C,C25*%
X154562500Y-88000000D03*
X151437500Y-88000000D03*
%TD*%
D23*
%TO.C,J11*%
X119000000Y-82042500D03*
D24*
X113000000Y-82042500D03*
D25*
X116000000Y-86742500D03*
%TD*%
D17*
%TO.C,C24*%
X151437500Y-79700000D03*
X154562500Y-79700000D03*
%TD*%
D15*
%TO.C,C21*%
X113000000Y-64437500D03*
X113000000Y-67562500D03*
%TD*%
D26*
%TO.C,U3*%
X113652900Y-57500000D03*
X113652900Y-57999999D03*
X113652900Y-58500001D03*
X113652900Y-59000000D03*
X113652900Y-59499999D03*
X113652900Y-60000001D03*
X113652900Y-60500000D03*
D27*
X114500000Y-61347100D03*
X114999999Y-61347100D03*
X115500001Y-61347100D03*
X116000000Y-61347100D03*
X116499999Y-61347100D03*
X117000001Y-61347100D03*
X117500000Y-61347100D03*
D26*
X118347100Y-60500000D03*
X118347100Y-60000001D03*
X118347100Y-59499999D03*
X118347100Y-59000000D03*
X118347100Y-58500001D03*
X118347100Y-57999999D03*
X118347100Y-57500000D03*
D27*
X117500000Y-56652900D03*
X117000001Y-56652900D03*
X116499999Y-56652900D03*
X116000000Y-56652900D03*
X115500001Y-56652900D03*
X114999999Y-56652900D03*
X114500000Y-56652900D03*
D28*
X116000000Y-59000000D03*
%TD*%
D29*
%TO.C,J1*%
X163525000Y-100725000D03*
D30*
X163525000Y-103265000D03*
X160985000Y-100725000D03*
X160985000Y-103265000D03*
X158445000Y-100725000D03*
X158445000Y-103265000D03*
%TD*%
D17*
%TO.C,C22*%
X137437500Y-105000000D03*
X140562500Y-105000000D03*
%TD*%
D15*
%TO.C,C3*%
X119000000Y-64437500D03*
X119000000Y-67562500D03*
%TD*%
D31*
%TO.C,Y1*%
X154450000Y-82750000D03*
X151550000Y-82750000D03*
X151550000Y-85050000D03*
X154450000Y-85050000D03*
%TD*%
D26*
%TO.C,U2*%
X127652900Y-57500000D03*
X127652900Y-57999999D03*
X127652900Y-58500001D03*
X127652900Y-59000000D03*
X127652900Y-59499999D03*
X127652900Y-60000001D03*
X127652900Y-60500000D03*
D27*
X128500000Y-61347100D03*
X128999999Y-61347100D03*
X129500001Y-61347100D03*
X130000000Y-61347100D03*
X130499999Y-61347100D03*
X131000001Y-61347100D03*
X131500000Y-61347100D03*
D26*
X132347100Y-60500000D03*
X132347100Y-60000001D03*
X132347100Y-59499999D03*
X132347100Y-59000000D03*
X132347100Y-58500001D03*
X132347100Y-57999999D03*
X132347100Y-57500000D03*
D27*
X131500000Y-56652900D03*
X131000001Y-56652900D03*
X130499999Y-56652900D03*
X130000000Y-56652900D03*
X129500001Y-56652900D03*
X128999999Y-56652900D03*
X128500000Y-56652900D03*
D28*
X130000000Y-59000000D03*
%TD*%
D32*
%TO.C,D6*%
X147487500Y-71000000D03*
X144512500Y-71000000D03*
%TD*%
D33*
%TO.C,FB2*%
X116000000Y-102450000D03*
X116000000Y-105550000D03*
%TD*%
D34*
%TO.C,D8*%
X156512500Y-42487500D03*
X159487500Y-42487500D03*
%TD*%
D17*
%TO.C,C27*%
X125437500Y-84000000D03*
X128562500Y-84000000D03*
%TD*%
D18*
%TO.C,R12*%
X156450000Y-59000000D03*
X159550000Y-59000000D03*
%TD*%
D19*
%TO.C,C6*%
X116000000Y-52200000D03*
X116000000Y-47800000D03*
%TD*%
D22*
%TO.C,C7*%
X138562500Y-62000000D03*
X135437500Y-62000000D03*
%TD*%
D14*
%TO.C,R2*%
X144000000Y-103550000D03*
X144000000Y-100450000D03*
%TD*%
D22*
%TO.C,C9*%
X124562500Y-62000000D03*
X121437500Y-62000000D03*
%TD*%
D35*
%TO.C,R3*%
X154550000Y-96000000D03*
X151450000Y-96000000D03*
%TD*%
D19*
%TO.C,C4*%
X144000000Y-52200000D03*
X144000000Y-47800000D03*
%TD*%
D15*
%TO.C,C2*%
X133000000Y-64437500D03*
X133000000Y-67562500D03*
%TD*%
D16*
%TO.C,C18*%
X110000000Y-59562500D03*
X110000000Y-56437500D03*
%TD*%
D18*
%TO.C,R4*%
X122450000Y-75000000D03*
X125550000Y-75000000D03*
%TD*%
D20*
%TO.C,J9*%
X126250000Y-41475000D03*
D21*
X128750000Y-41475000D03*
X131250000Y-41475000D03*
X133750000Y-41475000D03*
%TD*%
D35*
%TO.C,R15*%
X159550000Y-51000000D03*
X156450000Y-51000000D03*
%TD*%
D14*
%TO.C,R1*%
X148000000Y-103550000D03*
X148000000Y-100450000D03*
%TD*%
D36*
%TO.C,U5*%
X134000000Y-96700000D03*
X134800000Y-96700000D03*
X135600000Y-96700000D03*
X136400000Y-96700000D03*
X137200000Y-96700000D03*
X138000000Y-96700000D03*
X138800000Y-96700000D03*
X139600000Y-96700000D03*
X140400000Y-96700000D03*
X141200000Y-96700000D03*
X142000000Y-96700000D03*
X142800000Y-96700000D03*
X143600000Y-96700000D03*
X144400000Y-96700000D03*
X145200000Y-96700000D03*
X146000000Y-96700000D03*
D37*
X147700000Y-95000000D03*
X147700000Y-94200000D03*
X147700000Y-93400000D03*
X147700000Y-92600000D03*
X147700000Y-91800000D03*
X147700000Y-91000000D03*
X147700000Y-90200000D03*
X147700000Y-89400000D03*
X147700000Y-88600000D03*
X147700000Y-87800000D03*
X147700000Y-87000000D03*
X147700000Y-86200000D03*
X147700000Y-85400000D03*
X147700000Y-84600000D03*
X147700000Y-83800000D03*
X147700000Y-83000000D03*
D36*
X146000000Y-81300000D03*
X145200000Y-81300000D03*
X144400000Y-81300000D03*
X143600000Y-81300000D03*
X142800000Y-81300000D03*
X142000000Y-81300000D03*
X141200000Y-81300000D03*
X140400000Y-81300000D03*
X139600000Y-81300000D03*
X138800000Y-81300000D03*
X138000000Y-81300000D03*
X137200000Y-81300000D03*
X136400000Y-81300000D03*
X135600000Y-81300000D03*
X134800000Y-81300000D03*
X134000000Y-81300000D03*
D37*
X132300000Y-83000000D03*
X132300000Y-83800000D03*
X132300000Y-84600000D03*
X132300000Y-85400000D03*
X132300000Y-86200000D03*
X132300000Y-87000000D03*
X132300000Y-87800000D03*
X132300000Y-88600000D03*
X132300000Y-89400000D03*
X132300000Y-90200000D03*
X132300000Y-91000000D03*
X132300000Y-91800000D03*
X132300000Y-92600000D03*
X132300000Y-93400000D03*
X132300000Y-94200000D03*
X132300000Y-95000000D03*
%TD*%
D17*
%TO.C,C23*%
X137437500Y-100000000D03*
X140562500Y-100000000D03*
%TD*%
D18*
%TO.C,R9*%
X150450000Y-71000000D03*
X153550000Y-71000000D03*
%TD*%
D15*
%TO.C,C19*%
X141000000Y-64437500D03*
X141000000Y-67562500D03*
%TD*%
D17*
%TO.C,C17*%
X121437500Y-58000000D03*
X124562500Y-58000000D03*
%TD*%
D38*
%TO.C,U6*%
X123000000Y-86800000D03*
X122500000Y-86800000D03*
X122000000Y-86800000D03*
X121500000Y-86800000D03*
X121000000Y-86800000D03*
X121000000Y-91200000D03*
X121500000Y-91200000D03*
X122000000Y-91200000D03*
X122500000Y-91200000D03*
X123000000Y-91200000D03*
%TD*%
D18*
%TO.C,R7*%
X136450000Y-71000000D03*
X139550000Y-71000000D03*
%TD*%
D16*
%TO.C,C14*%
X125000000Y-53562500D03*
X125000000Y-50437500D03*
%TD*%
D22*
%TO.C,C28*%
X154562500Y-92000000D03*
X151437500Y-92000000D03*
%TD*%
D39*
%TO.C,J3*%
X166000000Y-44000000D03*
D40*
X166000000Y-41500000D03*
%TD*%
D18*
%TO.C,R8*%
X150450000Y-75000000D03*
X153550000Y-75000000D03*
%TD*%
D39*
%TO.C,J5*%
X166000000Y-68000000D03*
D40*
X166000000Y-65500000D03*
%TD*%
D39*
%TO.C,J4*%
X166000000Y-56000000D03*
D40*
X166000000Y-53500000D03*
%TD*%
D34*
%TO.C,D9*%
X156512500Y-55000000D03*
X159487500Y-55000000D03*
%TD*%
D16*
%TO.C,C13*%
X149000000Y-53562500D03*
X149000000Y-50437500D03*
%TD*%
D32*
%TO.C,D3*%
X133487500Y-75000000D03*
X130512500Y-75000000D03*
%TD*%
D14*
%TO.C,R21*%
X159000000Y-96550000D03*
X159000000Y-93450000D03*
%TD*%
D32*
%TO.C,D4*%
X133487500Y-71000000D03*
X130512500Y-71000000D03*
%TD*%
D18*
%TO.C,R10*%
X151450000Y-104000000D03*
X154550000Y-104000000D03*
%TD*%
%TO.C,R18*%
X115450000Y-92380000D03*
X118550000Y-92380000D03*
%TD*%
D35*
%TO.C,R16*%
X159550000Y-63000000D03*
X156450000Y-63000000D03*
%TD*%
D32*
%TO.C,D1*%
X119487500Y-75000000D03*
X116512500Y-75000000D03*
%TD*%
D41*
%TO.C,RV2*%
X117010000Y-98087500D03*
X117010000Y-99912500D03*
%TD*%
D42*
%TO.C,U4*%
X132775000Y-104540000D03*
X132775000Y-102000000D03*
D43*
X123625000Y-102000000D03*
D42*
X132775000Y-99460000D03*
%TD*%
D44*
%TO.C,J7*%
X166000000Y-94475000D03*
D45*
X166000000Y-91975000D03*
X166000000Y-89475000D03*
%TD*%
D34*
%TO.C,D7*%
X151512500Y-100000000D03*
X154487500Y-100000000D03*
%TD*%
D32*
%TO.C,D5*%
X147487500Y-75000000D03*
X144512500Y-75000000D03*
%TD*%
D46*
%TO.C,J2*%
X111550000Y-92700000D03*
X111550000Y-93350000D03*
X111550000Y-94000000D03*
X111550000Y-94650000D03*
X111550000Y-95300000D03*
D47*
X108700000Y-95150000D03*
D48*
X108700000Y-97750000D03*
X108700000Y-90250000D03*
D47*
X108700000Y-92850000D03*
%TD*%
D18*
%TO.C,R6*%
X136450000Y-75000000D03*
X139550000Y-75000000D03*
%TD*%
D16*
%TO.C,C10*%
X135000000Y-53562500D03*
X135000000Y-50437500D03*
%TD*%
D18*
%TO.C,R13*%
X156450000Y-71000000D03*
X159550000Y-71000000D03*
%TD*%
D41*
%TO.C,RV1*%
X114000000Y-98087500D03*
X114000000Y-99912500D03*
%TD*%
D16*
%TO.C,C8*%
X139000000Y-53562500D03*
X139000000Y-50437500D03*
%TD*%
%TO.C,C15*%
X111000000Y-53562500D03*
X111000000Y-50437500D03*
%TD*%
D32*
%TO.C,D2*%
X119487500Y-71000000D03*
X116512500Y-71000000D03*
%TD*%
D20*
%TO.C,J10*%
X141950000Y-41475000D03*
D21*
X144450000Y-41475000D03*
X146950000Y-41475000D03*
X149450000Y-41475000D03*
%TD*%
D16*
%TO.C,C12*%
X121000000Y-53562500D03*
X121000000Y-50437500D03*
%TD*%
D22*
%TO.C,C30*%
X124562500Y-94000000D03*
X121437500Y-94000000D03*
%TD*%
D14*
%TO.C,R22*%
X159000000Y-90550000D03*
X159000000Y-87450000D03*
%TD*%
D18*
%TO.C,R11*%
X156450000Y-46487500D03*
X159550000Y-46487500D03*
%TD*%
D44*
%TO.C,J6*%
X166000000Y-81475000D03*
D45*
X166000000Y-78975000D03*
X166000000Y-76475000D03*
%TD*%
D18*
%TO.C,R17*%
X115460000Y-94980000D03*
X118560000Y-94980000D03*
%TD*%
D14*
%TO.C,R19*%
X159000000Y-83550000D03*
X159000000Y-80450000D03*
%TD*%
D26*
%TO.C,U1*%
X141652900Y-57500000D03*
X141652900Y-57999999D03*
X141652900Y-58500001D03*
X141652900Y-59000000D03*
X141652900Y-59499999D03*
X141652900Y-60000001D03*
X141652900Y-60500000D03*
D27*
X142500000Y-61347100D03*
X142999999Y-61347100D03*
X143500001Y-61347100D03*
X144000000Y-61347100D03*
X144499999Y-61347100D03*
X145000001Y-61347100D03*
X145500000Y-61347100D03*
D26*
X146347100Y-60500000D03*
X146347100Y-60000001D03*
X146347100Y-59499999D03*
X146347100Y-59000000D03*
X146347100Y-58500001D03*
X146347100Y-57999999D03*
X146347100Y-57500000D03*
D27*
X145500000Y-56652900D03*
X145000001Y-56652900D03*
X144499999Y-56652900D03*
X144000000Y-56652900D03*
X143500001Y-56652900D03*
X142999999Y-56652900D03*
X142500000Y-56652900D03*
D28*
X144000000Y-59000000D03*
%TD*%
D33*
%TO.C,R14*%
X153000000Y-47450000D03*
X153000000Y-50550000D03*
%TD*%
D17*
%TO.C,C16*%
X135437500Y-58000000D03*
X138562500Y-58000000D03*
%TD*%
D34*
%TO.C,D10*%
X156512500Y-67000000D03*
X159487500Y-67000000D03*
%TD*%
M02*
