%TF.GenerationSoftware,KiCad,Pcbnew,(6.0.4)*%
%TF.CreationDate,2022-04-20T22:20:39+02:00*%
%TF.ProjectId,coaster,636f6173-7465-4722-9e6b-696361645f70,rev?*%
%TF.SameCoordinates,Original*%
%TF.FileFunction,Paste,Top*%
%TF.FilePolarity,Positive*%
%FSLAX46Y46*%
G04 Gerber Fmt 4.6, Leading zero omitted, Abs format (unit mm)*
G04 Created by KiCad (PCBNEW (6.0.4)) date 2022-04-20 22:20:39*
%MOMM*%
%LPD*%
G01*
G04 APERTURE LIST*
G04 Aperture macros list*
%AMRoundRect*
0 Rectangle with rounded corners*
0 $1 Rounding radius*
0 $2 $3 $4 $5 $6 $7 $8 $9 X,Y pos of 4 corners*
0 Add a 4 corners polygon primitive as box body*
4,1,4,$2,$3,$4,$5,$6,$7,$8,$9,$2,$3,0*
0 Add four circle primitives for the rounded corners*
1,1,$1+$1,$2,$3*
1,1,$1+$1,$4,$5*
1,1,$1+$1,$6,$7*
1,1,$1+$1,$8,$9*
0 Add four rect primitives between the rounded corners*
20,1,$1+$1,$2,$3,$4,$5,0*
20,1,$1+$1,$4,$5,$6,$7,0*
20,1,$1+$1,$6,$7,$8,$9,0*
20,1,$1+$1,$8,$9,$2,$3,0*%
G04 Aperture macros list end*
%ADD10RoundRect,0.250000X0.625000X-0.400000X0.625000X0.400000X-0.625000X0.400000X-0.625000X-0.400000X0*%
%ADD11RoundRect,0.250000X-0.650000X0.412500X-0.650000X-0.412500X0.650000X-0.412500X0.650000X0.412500X0*%
%ADD12RoundRect,0.250000X0.650000X-0.412500X0.650000X0.412500X-0.650000X0.412500X-0.650000X-0.412500X0*%
%ADD13RoundRect,0.250000X-0.412500X-0.650000X0.412500X-0.650000X0.412500X0.650000X-0.412500X0.650000X0*%
%ADD14RoundRect,0.250000X-0.400000X-0.625000X0.400000X-0.625000X0.400000X0.625000X-0.400000X0.625000X0*%
%ADD15RoundRect,0.250000X0.550000X-1.250000X0.550000X1.250000X-0.550000X1.250000X-0.550000X-1.250000X0*%
%ADD16RoundRect,0.250000X0.412500X0.650000X-0.412500X0.650000X-0.412500X-0.650000X0.412500X-0.650000X0*%
%ADD17R,0.909599X0.254800*%
%ADD18R,0.254800X0.909599*%
%ADD19R,3.098800X3.098800*%
%ADD20R,2.100000X1.800000*%
%ADD21RoundRect,0.250001X0.462499X0.624999X-0.462499X0.624999X-0.462499X-0.624999X0.462499X-0.624999X0*%
%ADD22RoundRect,0.250000X-0.625000X0.400000X-0.625000X-0.400000X0.625000X-0.400000X0.625000X0.400000X0*%
%ADD23RoundRect,0.250001X-0.462499X-0.624999X0.462499X-0.624999X0.462499X0.624999X-0.462499X0.624999X0*%
%ADD24RoundRect,0.250000X0.400000X0.625000X-0.400000X0.625000X-0.400000X-0.625000X0.400000X-0.625000X0*%
%ADD25R,0.550000X1.500000*%
%ADD26R,1.500000X0.550000*%
%ADD27R,0.300000X1.400000*%
%ADD28RoundRect,0.237500X-0.237500X0.250000X-0.237500X-0.250000X0.237500X-0.250000X0.237500X0.250000X0*%
%ADD29R,4.550000X5.250000*%
%ADD30R,4.600000X1.100000*%
%ADD31R,1.400000X0.400000*%
%ADD32R,1.900000X1.800000*%
%ADD33R,1.900000X2.300000*%
G04 APERTURE END LIST*
D10*
%TO.C,R20*%
X159000000Y-77550000D03*
X159000000Y-74450000D03*
%TD*%
D11*
%TO.C,C1*%
X147000000Y-64437500D03*
X147000000Y-67562500D03*
%TD*%
%TO.C,C20*%
X127000000Y-64437500D03*
X127000000Y-67562500D03*
%TD*%
D12*
%TO.C,C29*%
X128000000Y-95125000D03*
X128000000Y-92000000D03*
%TD*%
D13*
%TO.C,C26*%
X125437500Y-88000000D03*
X128562500Y-88000000D03*
%TD*%
D14*
%TO.C,R5*%
X122450000Y-71000000D03*
X125550000Y-71000000D03*
%TD*%
D15*
%TO.C,C5*%
X130000000Y-52200000D03*
X130000000Y-47800000D03*
%TD*%
D11*
%TO.C,C11*%
X110000000Y-62437500D03*
X110000000Y-65562500D03*
%TD*%
D16*
%TO.C,C25*%
X154562500Y-88000000D03*
X151437500Y-88000000D03*
%TD*%
D13*
%TO.C,C24*%
X151437500Y-79700000D03*
X154562500Y-79700000D03*
%TD*%
D11*
%TO.C,C21*%
X113000000Y-64437500D03*
X113000000Y-67562500D03*
%TD*%
D17*
%TO.C,U3*%
X113652900Y-57500000D03*
X113652900Y-57999999D03*
X113652900Y-58500001D03*
X113652900Y-59000000D03*
X113652900Y-59499999D03*
X113652900Y-60000001D03*
X113652900Y-60500000D03*
D18*
X114500000Y-61347100D03*
X114999999Y-61347100D03*
X115500001Y-61347100D03*
X116000000Y-61347100D03*
X116499999Y-61347100D03*
X117000001Y-61347100D03*
X117500000Y-61347100D03*
D17*
X118347100Y-60500000D03*
X118347100Y-60000001D03*
X118347100Y-59499999D03*
X118347100Y-59000000D03*
X118347100Y-58500001D03*
X118347100Y-57999999D03*
X118347100Y-57500000D03*
D18*
X117500000Y-56652900D03*
X117000001Y-56652900D03*
X116499999Y-56652900D03*
X116000000Y-56652900D03*
X115500001Y-56652900D03*
X114999999Y-56652900D03*
X114500000Y-56652900D03*
D19*
X116000000Y-59000000D03*
%TD*%
D13*
%TO.C,C22*%
X137437500Y-105000000D03*
X140562500Y-105000000D03*
%TD*%
D11*
%TO.C,C3*%
X119000000Y-64437500D03*
X119000000Y-67562500D03*
%TD*%
D20*
%TO.C,Y1*%
X154450000Y-82750000D03*
X151550000Y-82750000D03*
X151550000Y-85050000D03*
X154450000Y-85050000D03*
%TD*%
D17*
%TO.C,U2*%
X127652900Y-57500000D03*
X127652900Y-57999999D03*
X127652900Y-58500001D03*
X127652900Y-59000000D03*
X127652900Y-59499999D03*
X127652900Y-60000001D03*
X127652900Y-60500000D03*
D18*
X128500000Y-61347100D03*
X128999999Y-61347100D03*
X129500001Y-61347100D03*
X130000000Y-61347100D03*
X130499999Y-61347100D03*
X131000001Y-61347100D03*
X131500000Y-61347100D03*
D17*
X132347100Y-60500000D03*
X132347100Y-60000001D03*
X132347100Y-59499999D03*
X132347100Y-59000000D03*
X132347100Y-58500001D03*
X132347100Y-57999999D03*
X132347100Y-57500000D03*
D18*
X131500000Y-56652900D03*
X131000001Y-56652900D03*
X130499999Y-56652900D03*
X130000000Y-56652900D03*
X129500001Y-56652900D03*
X128999999Y-56652900D03*
X128500000Y-56652900D03*
D19*
X130000000Y-59000000D03*
%TD*%
D21*
%TO.C,D6*%
X147487500Y-71000000D03*
X144512500Y-71000000D03*
%TD*%
D22*
%TO.C,FB2*%
X116000000Y-102450000D03*
X116000000Y-105550000D03*
%TD*%
D23*
%TO.C,D8*%
X156512500Y-42487500D03*
X159487500Y-42487500D03*
%TD*%
D13*
%TO.C,C27*%
X125437500Y-84000000D03*
X128562500Y-84000000D03*
%TD*%
D14*
%TO.C,R12*%
X156450000Y-59000000D03*
X159550000Y-59000000D03*
%TD*%
D15*
%TO.C,C6*%
X116000000Y-52200000D03*
X116000000Y-47800000D03*
%TD*%
D16*
%TO.C,C7*%
X138562500Y-62000000D03*
X135437500Y-62000000D03*
%TD*%
D10*
%TO.C,R2*%
X144000000Y-103550000D03*
X144000000Y-100450000D03*
%TD*%
D16*
%TO.C,C9*%
X124562500Y-62000000D03*
X121437500Y-62000000D03*
%TD*%
D24*
%TO.C,R3*%
X154550000Y-96000000D03*
X151450000Y-96000000D03*
%TD*%
D15*
%TO.C,C4*%
X144000000Y-52200000D03*
X144000000Y-47800000D03*
%TD*%
D11*
%TO.C,C2*%
X133000000Y-64437500D03*
X133000000Y-67562500D03*
%TD*%
D12*
%TO.C,C18*%
X110000000Y-59562500D03*
X110000000Y-56437500D03*
%TD*%
D14*
%TO.C,R4*%
X122450000Y-75000000D03*
X125550000Y-75000000D03*
%TD*%
D24*
%TO.C,R15*%
X159550000Y-51000000D03*
X156450000Y-51000000D03*
%TD*%
D10*
%TO.C,R1*%
X148000000Y-103550000D03*
X148000000Y-100450000D03*
%TD*%
D25*
%TO.C,U5*%
X134000000Y-96700000D03*
X134800000Y-96700000D03*
X135600000Y-96700000D03*
X136400000Y-96700000D03*
X137200000Y-96700000D03*
X138000000Y-96700000D03*
X138800000Y-96700000D03*
X139600000Y-96700000D03*
X140400000Y-96700000D03*
X141200000Y-96700000D03*
X142000000Y-96700000D03*
X142800000Y-96700000D03*
X143600000Y-96700000D03*
X144400000Y-96700000D03*
X145200000Y-96700000D03*
X146000000Y-96700000D03*
D26*
X147700000Y-95000000D03*
X147700000Y-94200000D03*
X147700000Y-93400000D03*
X147700000Y-92600000D03*
X147700000Y-91800000D03*
X147700000Y-91000000D03*
X147700000Y-90200000D03*
X147700000Y-89400000D03*
X147700000Y-88600000D03*
X147700000Y-87800000D03*
X147700000Y-87000000D03*
X147700000Y-86200000D03*
X147700000Y-85400000D03*
X147700000Y-84600000D03*
X147700000Y-83800000D03*
X147700000Y-83000000D03*
D25*
X146000000Y-81300000D03*
X145200000Y-81300000D03*
X144400000Y-81300000D03*
X143600000Y-81300000D03*
X142800000Y-81300000D03*
X142000000Y-81300000D03*
X141200000Y-81300000D03*
X140400000Y-81300000D03*
X139600000Y-81300000D03*
X138800000Y-81300000D03*
X138000000Y-81300000D03*
X137200000Y-81300000D03*
X136400000Y-81300000D03*
X135600000Y-81300000D03*
X134800000Y-81300000D03*
X134000000Y-81300000D03*
D26*
X132300000Y-83000000D03*
X132300000Y-83800000D03*
X132300000Y-84600000D03*
X132300000Y-85400000D03*
X132300000Y-86200000D03*
X132300000Y-87000000D03*
X132300000Y-87800000D03*
X132300000Y-88600000D03*
X132300000Y-89400000D03*
X132300000Y-90200000D03*
X132300000Y-91000000D03*
X132300000Y-91800000D03*
X132300000Y-92600000D03*
X132300000Y-93400000D03*
X132300000Y-94200000D03*
X132300000Y-95000000D03*
%TD*%
D13*
%TO.C,C23*%
X137437500Y-100000000D03*
X140562500Y-100000000D03*
%TD*%
D14*
%TO.C,R9*%
X150450000Y-71000000D03*
X153550000Y-71000000D03*
%TD*%
D11*
%TO.C,C19*%
X141000000Y-64437500D03*
X141000000Y-67562500D03*
%TD*%
D13*
%TO.C,C17*%
X121437500Y-58000000D03*
X124562500Y-58000000D03*
%TD*%
D27*
%TO.C,U6*%
X123000000Y-86800000D03*
X122500000Y-86800000D03*
X122000000Y-86800000D03*
X121500000Y-86800000D03*
X121000000Y-86800000D03*
X121000000Y-91200000D03*
X121500000Y-91200000D03*
X122000000Y-91200000D03*
X122500000Y-91200000D03*
X123000000Y-91200000D03*
%TD*%
D14*
%TO.C,R7*%
X136450000Y-71000000D03*
X139550000Y-71000000D03*
%TD*%
D12*
%TO.C,C14*%
X125000000Y-53562500D03*
X125000000Y-50437500D03*
%TD*%
D16*
%TO.C,C28*%
X154562500Y-92000000D03*
X151437500Y-92000000D03*
%TD*%
D14*
%TO.C,R8*%
X150450000Y-75000000D03*
X153550000Y-75000000D03*
%TD*%
D23*
%TO.C,D9*%
X156512500Y-55000000D03*
X159487500Y-55000000D03*
%TD*%
D12*
%TO.C,C13*%
X149000000Y-53562500D03*
X149000000Y-50437500D03*
%TD*%
D21*
%TO.C,D3*%
X133487500Y-75000000D03*
X130512500Y-75000000D03*
%TD*%
D10*
%TO.C,R21*%
X159000000Y-96550000D03*
X159000000Y-93450000D03*
%TD*%
D21*
%TO.C,D4*%
X133487500Y-71000000D03*
X130512500Y-71000000D03*
%TD*%
D14*
%TO.C,R10*%
X151450000Y-104000000D03*
X154550000Y-104000000D03*
%TD*%
%TO.C,R18*%
X115450000Y-92380000D03*
X118550000Y-92380000D03*
%TD*%
D24*
%TO.C,R16*%
X159550000Y-63000000D03*
X156450000Y-63000000D03*
%TD*%
D21*
%TO.C,D1*%
X119487500Y-75000000D03*
X116512500Y-75000000D03*
%TD*%
D28*
%TO.C,RV2*%
X117010000Y-98087500D03*
X117010000Y-99912500D03*
%TD*%
D29*
%TO.C,U4*%
X126050000Y-104775000D03*
X126050000Y-99225000D03*
X121200000Y-104775000D03*
X121200000Y-99225000D03*
D30*
X132775000Y-104540000D03*
X132775000Y-102000000D03*
X132775000Y-99460000D03*
%TD*%
D23*
%TO.C,D7*%
X151512500Y-100000000D03*
X154487500Y-100000000D03*
%TD*%
D21*
%TO.C,D5*%
X147487500Y-75000000D03*
X144512500Y-75000000D03*
%TD*%
D31*
%TO.C,J2*%
X111550000Y-92700000D03*
X111550000Y-93350000D03*
X111550000Y-94000000D03*
X111550000Y-94650000D03*
X111550000Y-95300000D03*
D32*
X108700000Y-95150000D03*
D33*
X108700000Y-97750000D03*
X108700000Y-90250000D03*
D32*
X108700000Y-92850000D03*
%TD*%
D14*
%TO.C,R6*%
X136450000Y-75000000D03*
X139550000Y-75000000D03*
%TD*%
D12*
%TO.C,C10*%
X135000000Y-53562500D03*
X135000000Y-50437500D03*
%TD*%
D14*
%TO.C,R13*%
X156450000Y-71000000D03*
X159550000Y-71000000D03*
%TD*%
D28*
%TO.C,RV1*%
X114000000Y-98087500D03*
X114000000Y-99912500D03*
%TD*%
D12*
%TO.C,C8*%
X139000000Y-53562500D03*
X139000000Y-50437500D03*
%TD*%
%TO.C,C15*%
X111000000Y-53562500D03*
X111000000Y-50437500D03*
%TD*%
D21*
%TO.C,D2*%
X119487500Y-71000000D03*
X116512500Y-71000000D03*
%TD*%
D12*
%TO.C,C12*%
X121000000Y-53562500D03*
X121000000Y-50437500D03*
%TD*%
D16*
%TO.C,C30*%
X124562500Y-94000000D03*
X121437500Y-94000000D03*
%TD*%
D10*
%TO.C,R22*%
X159000000Y-90550000D03*
X159000000Y-87450000D03*
%TD*%
D14*
%TO.C,R11*%
X156450000Y-46487500D03*
X159550000Y-46487500D03*
%TD*%
%TO.C,R17*%
X115460000Y-94980000D03*
X118560000Y-94980000D03*
%TD*%
D10*
%TO.C,R19*%
X159000000Y-83550000D03*
X159000000Y-80450000D03*
%TD*%
D17*
%TO.C,U1*%
X141652900Y-57500000D03*
X141652900Y-57999999D03*
X141652900Y-58500001D03*
X141652900Y-59000000D03*
X141652900Y-59499999D03*
X141652900Y-60000001D03*
X141652900Y-60500000D03*
D18*
X142500000Y-61347100D03*
X142999999Y-61347100D03*
X143500001Y-61347100D03*
X144000000Y-61347100D03*
X144499999Y-61347100D03*
X145000001Y-61347100D03*
X145500000Y-61347100D03*
D17*
X146347100Y-60500000D03*
X146347100Y-60000001D03*
X146347100Y-59499999D03*
X146347100Y-59000000D03*
X146347100Y-58500001D03*
X146347100Y-57999999D03*
X146347100Y-57500000D03*
D18*
X145500000Y-56652900D03*
X145000001Y-56652900D03*
X144499999Y-56652900D03*
X144000000Y-56652900D03*
X143500001Y-56652900D03*
X142999999Y-56652900D03*
X142500000Y-56652900D03*
D19*
X144000000Y-59000000D03*
%TD*%
D22*
%TO.C,R14*%
X153000000Y-47450000D03*
X153000000Y-50550000D03*
%TD*%
D13*
%TO.C,C16*%
X135437500Y-58000000D03*
X138562500Y-58000000D03*
%TD*%
D23*
%TO.C,D10*%
X156512500Y-67000000D03*
X159487500Y-67000000D03*
%TD*%
M02*
