M48
; DRILL file {KiCad (6.0.4)} date Fri Apr 15 13:56:09 2022
; FORMAT={-:-/ absolute / inch / decimal}
; #@! TF.CreationDate,2022-04-15T13:56:09+02:00
; #@! TF.GenerationSoftware,Kicad,Pcbnew,(6.0.4)
; #@! TF.FileFunction,Plated,1,2,PTH
FMAT,2
INCH
; #@! TA.AperFunction,Plated,PTH,ViaDrill
T1C0.0079
; #@! TA.AperFunction,Plated,PTH,ViaDrill
T2C0.0157
; #@! TA.AperFunction,Plated,PTH,ComponentDrill
T3C0.0374
; #@! TA.AperFunction,Plated,PTH,ComponentDrill
T4C0.0394
; #@! TA.AperFunction,Plated,PTH,ViaDrill
T5C0.1024
%
G90
G05
T1
X4.2402Y-2.6654
X4.315Y-2.1614
X4.3978Y-2.2715
X4.4396Y-2.2061
X4.4409Y-2.2835
X4.4409Y-3.0118
X4.4961Y-2.1929
X4.5079Y-2.5118
X4.5394Y-2.1929
X4.5866Y-2.1969
X4.6063Y-2.4528
X4.626Y-2.1929
X4.6339Y-2.9528
X4.6929Y-2.2638
X4.6973Y-2.3421
X4.7992Y-3.6372
X4.8268Y-3.6372
X4.9567Y-2.3031
X4.9882Y-2.2047
X4.9918Y-3.0082
X4.9921Y-2.2835
X5.0591Y-2.1968
X5.0591Y-2.5079
X5.0984Y-2.1929
X5.1378Y-2.1929
X5.1575Y-2.4528
X5.1811Y-2.1968
X5.185Y-2.9528
X5.2485Y-2.3421
X5.2677Y-2.2441
X5.3091Y-3.8567
X5.3366Y-3.8567
X5.3583Y-4.0158
X5.407Y-4.0355
X5.5079Y-2.2756
X5.5394Y-2.2047
X5.5394Y-3.0276
X5.5433Y-2.2835
X5.5906Y-3.8543
X5.6102Y-2.1929
X5.6102Y-2.5079
X5.626Y-3.8937
X5.6496Y-2.1929
X5.6535Y-3.8543
X5.689Y-2.1929
X5.7087Y-2.4567
X5.7293Y-4.123
X5.7362Y-2.1929
X5.7362Y-2.9528
X5.7598Y-4.1181
X5.7992Y-2.2638
X5.8075Y-2.35
X5.8701Y-3.3307
X5.8701Y-3.3622
X5.8701Y-3.3937
X5.8701Y-3.4252
X5.8701Y-3.4567
X6.0276Y-3.8937
T2
X4.4488Y-3.8189
X4.6142Y-1.9724
X4.6457Y-4.0157
X4.685Y-2.5827
X4.7913Y-2.3622
X4.8425Y-1.9843
X4.8848Y-3.6388
X5.0Y-3.3031
X5.1181Y-1.9685
X5.2362Y-2.5827
X5.3386Y-2.3622
X5.3937Y-1.9843
X5.4685Y-4.1339
X5.748Y-3.5827
X5.7874Y-2.5827
X5.9449Y-1.9882
X6.0118Y-3.622
X6.2638Y-3.5
T3
X4.3681Y-1.6329
X4.4665Y-1.6329
X4.565Y-1.6329
X4.6634Y-1.6329
X4.9705Y-1.6329
X5.0689Y-1.6329
X5.1673Y-1.6329
X5.2657Y-1.6329
X5.5886Y-1.6329
X5.687Y-1.6329
X5.7854Y-1.6329
X5.8839Y-1.6329
X6.5354Y-3.0108
X6.5354Y-3.1093
X6.5354Y-3.2077
X6.5354Y-3.5226
X6.5354Y-3.6211
X6.5354Y-3.7195
T4
X6.238Y-3.9656
X6.238Y-4.0656
X6.338Y-3.9656
X6.338Y-4.0656
X6.438Y-3.9656
X6.438Y-4.0656
X6.5354Y-1.6339
X6.5354Y-1.7323
X6.5354Y-2.1063
X6.5354Y-2.2047
X6.5354Y-2.5787
X6.5354Y-2.6772
T5
X4.3307Y-4.1339
X4.3465Y-1.8661
X6.378Y-1.9291
X6.6535Y-4.1339
T4
G00X4.4488Y-3.1906
M15
G01X4.4488Y-3.2694
M16
G05
G00X4.5276Y-3.4151
M15
G01X4.6063Y-3.4151
M16
G05
G00X4.685Y-3.1906
M15
G01X4.685Y-3.2694
M16
G05
T0
M30
