%FSLAX45Y45*%
G04 Gerber Fmt 4.5, Leading zero omitted, Abs format (unit mm)*
G04 Created by KiCad (PCBNEW (6.0.4)) date 2022-04-15 10:09:58*
%MOMM*%
%LPD*%
G01*
G04 APERTURE LIST*
%TA.AperFunction,Profile*%
%ADD10C,0.100000*%
%TD*%
%ADD11C,0.200000*%
G04 APERTURE END LIST*
D10*
X17050000Y-3800000D02*
X10850000Y-3800000D01*
X17200000Y-10650000D02*
X17200000Y-3950000D01*
X10850000Y-10800000D02*
X17050000Y-10800000D01*
X10700000Y-3950000D02*
X10700000Y-10650000D01*
X10850000Y-3800000D02*
G75*
G03*
X10700000Y-3950000I0J-150000D01*
G01*
X17200000Y-3950000D02*
G75*
G03*
X17050000Y-3800000I-150000J0D01*
G01*
X17050000Y-10800000D02*
G75*
G03*
X17200000Y-10650000I0J150000D01*
G01*
X10700000Y-10650000D02*
G75*
G03*
X10850000Y-10800000I150000J0D01*
G01*
D11*
X10952619Y-11115476D02*
X10952619Y-10915476D01*
X11000238Y-10915476D01*
X11028810Y-10925000D01*
X11047857Y-10944048D01*
X11057381Y-10963095D01*
X11066905Y-11001190D01*
X11066905Y-11029762D01*
X11057381Y-11067857D01*
X11047857Y-11086905D01*
X11028810Y-11105952D01*
X11000238Y-11115476D01*
X10952619Y-11115476D01*
X11152619Y-11115476D02*
X11152619Y-10982143D01*
X11152619Y-11020238D02*
X11162143Y-11001190D01*
X11171667Y-10991667D01*
X11190714Y-10982143D01*
X11209762Y-10982143D01*
X11276428Y-11115476D02*
X11276428Y-10982143D01*
X11276428Y-10915476D02*
X11266905Y-10925000D01*
X11276428Y-10934524D01*
X11285952Y-10925000D01*
X11276428Y-10915476D01*
X11276428Y-10934524D01*
X11400238Y-11115476D02*
X11381190Y-11105952D01*
X11371667Y-11086905D01*
X11371667Y-10915476D01*
X11505000Y-11115476D02*
X11485952Y-11105952D01*
X11476428Y-11086905D01*
X11476428Y-10915476D01*
X11733571Y-11115476D02*
X11733571Y-10915476D01*
X11800238Y-11058333D01*
X11866905Y-10915476D01*
X11866905Y-11115476D01*
X12047857Y-11115476D02*
X12047857Y-11010714D01*
X12038333Y-10991667D01*
X12019286Y-10982143D01*
X11981190Y-10982143D01*
X11962143Y-10991667D01*
X12047857Y-11105952D02*
X12028809Y-11115476D01*
X11981190Y-11115476D01*
X11962143Y-11105952D01*
X11952619Y-11086905D01*
X11952619Y-11067857D01*
X11962143Y-11048810D01*
X11981190Y-11039286D01*
X12028809Y-11039286D01*
X12047857Y-11029762D01*
X12143095Y-10982143D02*
X12143095Y-11182143D01*
X12143095Y-10991667D02*
X12162143Y-10982143D01*
X12200238Y-10982143D01*
X12219286Y-10991667D01*
X12228809Y-11001190D01*
X12238333Y-11020238D01*
X12238333Y-11077381D01*
X12228809Y-11096429D01*
X12219286Y-11105952D01*
X12200238Y-11115476D01*
X12162143Y-11115476D01*
X12143095Y-11105952D01*
X12324048Y-11096429D02*
X12333571Y-11105952D01*
X12324048Y-11115476D01*
X12314524Y-11105952D01*
X12324048Y-11096429D01*
X12324048Y-11115476D01*
X12324048Y-10991667D02*
X12333571Y-11001190D01*
X12324048Y-11010714D01*
X12314524Y-11001190D01*
X12324048Y-10991667D01*
X12324048Y-11010714D01*
M02*
