M48
; DRILL file {KiCad (6.0.4)} date Fri Apr 15 10:09:57 2022
; FORMAT={-:-/ absolute / metric / decimal}
; #@! TF.CreationDate,2022-04-15T10:09:57+02:00
; #@! TF.GenerationSoftware,Kicad,Pcbnew,(6.0.4)
; #@! TF.FileFunction,Plated,1,2,PTH
FMAT,2
METRIC
; #@! TA.AperFunction,Plated,PTH,ViaDrill
T1C0.200
; #@! TA.AperFunction,Plated,PTH,ViaDrill
T2C0.400
; #@! TA.AperFunction,Plated,PTH,ComponentDrill
T3C0.950
; #@! TA.AperFunction,Plated,PTH,ComponentDrill
T4C1.000
; #@! TA.AperFunction,Plated,PTH,ViaDrill
T5C2.600
%
G90
G05
T1
X107.7Y-67.7
X109.6Y-54.9
X111.703Y-57.697
X112.766Y-56.034
X112.8Y-58.0
X112.8Y-76.5
X114.2Y-55.7
X114.5Y-63.8
X115.3Y-55.7
X116.5Y-55.8
X117.0Y-62.3
X117.5Y-55.7
X117.7Y-75.0
X119.2Y-57.5
X119.311Y-59.489
X124.3Y-96.9
X125.9Y-58.5
X126.7Y-56.0
X126.791Y-76.409
X126.8Y-58.0
X128.5Y-55.799
X128.5Y-63.7
X129.5Y-55.7
X130.5Y-55.7
X131.0Y-62.3
X131.6Y-55.799
X131.7Y-75.0
X133.311Y-59.489
X133.8Y-57.0
X139.9Y-57.8
X140.7Y-56.0
X140.7Y-76.9
X140.8Y-58.0
X142.0Y-97.9
X142.5Y-55.7
X142.5Y-63.7
X142.9Y-98.899
X143.5Y-55.7
X143.6Y-97.9
X144.5Y-55.7
X145.0Y-62.4
X145.7Y-55.7
X145.7Y-75.0
X147.3Y-57.5
X147.511Y-59.689
X149.1Y-84.6
X149.1Y-85.4
X149.1Y-86.2
X149.1Y-87.0
X149.1Y-87.8
X153.1Y-98.899
T2
X114.2Y-100.0
X114.2Y-104.0
X117.2Y-50.1
X119.0Y-65.6
X120.4Y-93.7
X120.4Y-97.2
X121.7Y-60.0
X123.0Y-50.4
X128.5Y-87.5
X128.5Y-94.0
X130.0Y-50.0
X133.0Y-65.6
X135.6Y-60.0
X137.0Y-50.4
X137.0Y-95.0
X137.0Y-99.7
X146.0Y-91.0
X147.0Y-65.6
X147.3Y-104.5
X151.0Y-50.5
X152.7Y-92.0
X159.1Y-88.9
T3
X110.95Y-41.475
X113.45Y-41.475
X115.95Y-41.475
X118.45Y-41.475
X126.25Y-41.475
X128.75Y-41.475
X131.25Y-41.475
X133.75Y-41.475
X141.95Y-41.475
X144.45Y-41.475
X146.95Y-41.475
X149.45Y-41.475
X166.0Y-76.475
X166.0Y-78.975
X166.0Y-81.475
X166.0Y-89.475
X166.0Y-91.975
X166.0Y-94.475
T4
X158.445Y-100.725
X158.445Y-103.265
X160.985Y-100.725
X160.985Y-103.265
X163.525Y-100.725
X163.525Y-103.265
X166.0Y-41.5
X166.0Y-44.0
X166.0Y-53.5
X166.0Y-56.0
X166.0Y-65.5
X166.0Y-68.0
T5
X110.4Y-47.4
X117.0Y-105.0
X162.0Y-49.0
X169.0Y-105.0
T4
X113.0Y-81.042G85X113.0Y-83.042
G05
X115.0Y-86.742G85X117.0Y-86.742
G05
X119.0Y-81.042G85X119.0Y-83.042
G05
T0
M30
